<?xml version="1.0" encoding="UTF-8"?>
<svg width="642px" height="199px" viewBox="0 0 642 199" version="1.1" xmlns="http://www.w3.org/2000/svg" xmlns:xlink="http://www.w3.org/1999/xlink">
    <!-- Generator: Sketch 41.2 (35397) - http://www.bohemiancoding.com/sketch -->
    <title>Assets/Textures/alert_bounds</title>
    <desc>Created with Sketch.</desc>
    <defs>
        <linearGradient x1="50%" y1="0%" x2="50%" y2="100%" id="linearGradient-1">
            <stop stop-color="#FFFFFF" offset="0%"></stop>
            <stop stop-color="#FFFFFF" stop-opacity="0" offset="100%"></stop>
        </linearGradient>
        <path d="M547.954584,81.7803822 C547.984738,81.1935699 548,80.6028253 548,80.0085183 L548,33.9914817 C548,15.2267396 532.779785,0 514.004698,0 L33.9953016,0 C15.228607,0 0,15.2185047 0,33.9914817 L0,80.0085183 C0,98.7732604 15.2202149,114 33.9953016,114 L514.004698,114 C522.125866,114 529.584466,111.150076 535.433115,106.395464 C542.358916,113.979509 560,114 560,114 C548.055994,107.099972 547.954584,97.7232338 547.954584,97.7232338 L547.954584,81.7803822 Z" id="path-2"></path>
        <filter x="-50%" y="-50%" width="200%" height="200%" filterUnits="objectBoundingBox" id="filter-3">
            <feMorphology radius="3" operator="dilate" in="SourceAlpha" result="shadowSpreadOuter1"></feMorphology>
            <feOffset dx="0" dy="0" in="shadowSpreadOuter1" result="shadowOffsetOuter1"></feOffset>
            <feMorphology radius="3" operator="erode" in="SourceAlpha" result="shadowInner"></feMorphology>
            <feOffset dx="0" dy="0" in="shadowInner" result="shadowInner"></feOffset>
            <feComposite in="shadowOffsetOuter1" in2="shadowInner" operator="out" result="shadowOffsetOuter1"></feComposite>
            <feGaussianBlur stdDeviation="2" in="shadowOffsetOuter1" result="shadowBlurOuter1"></feGaussianBlur>
            <feColorMatrix values="0 0 0 0 0.0862745098   0 0 0 0 1   0 0 0 0 1  0 0 0 0.6 0" type="matrix" in="shadowBlurOuter1"></feColorMatrix>
        </filter>
        <path d="M6.58823529,52.3783784 C6.58823529,52.3783784 8.43334704,37.3705346 6.58823529,22.7013619 C5.13922939,11.1813454 0,0 0,0 L13.1764706,0 C13.1764706,0 16.6237424,10.0915155 15.3636906,20.109292 C13.3296247,36.2807047 6.58823529,52.3783784 6.58823529,52.3783784 Z" id="path-4"></path>
        <filter x="-50%" y="-50%" width="200%" height="200%" filterUnits="objectBoundingBox" id="filter-5">
            <feMorphology radius="3" operator="dilate" in="SourceAlpha" result="shadowSpreadOuter1"></feMorphology>
            <feOffset dx="0" dy="0" in="shadowSpreadOuter1" result="shadowOffsetOuter1"></feOffset>
            <feMorphology radius="3" operator="erode" in="SourceAlpha" result="shadowInner"></feMorphology>
            <feOffset dx="0" dy="0" in="shadowInner" result="shadowInner"></feOffset>
            <feComposite in="shadowOffsetOuter1" in2="shadowInner" operator="out" result="shadowOffsetOuter1"></feComposite>
            <feGaussianBlur stdDeviation="2" in="shadowOffsetOuter1" result="shadowBlurOuter1"></feGaussianBlur>
            <feColorMatrix values="0 0 0 0 0.0862745098   0 0 0 0 1   0 0 0 0 1  0 0 0 0.6 0" type="matrix" in="shadowBlurOuter1"></feColorMatrix>
        </filter>
        <ellipse id="path-6" cx="4.70588235" cy="63.4054054" rx="4.70588235" ry="4.59459459"></ellipse>
        <filter x="-50%" y="-50%" width="200%" height="200%" filterUnits="objectBoundingBox" id="filter-7">
            <feMorphology radius="3" operator="dilate" in="SourceAlpha" result="shadowSpreadOuter1"></feMorphology>
            <feOffset dx="0" dy="0" in="shadowSpreadOuter1" result="shadowOffsetOuter1"></feOffset>
            <feMorphology radius="3" operator="erode" in="SourceAlpha" result="shadowInner"></feMorphology>
            <feOffset dx="0" dy="0" in="shadowInner" result="shadowInner"></feOffset>
            <feComposite in="shadowOffsetOuter1" in2="shadowInner" operator="out" result="shadowOffsetOuter1"></feComposite>
            <feGaussianBlur stdDeviation="2" in="shadowOffsetOuter1" result="shadowBlurOuter1"></feGaussianBlur>
            <feColorMatrix values="0 0 0 0 0.0862745098   0 0 0 0 1   0 0 0 0 1  0 0 0 0.6 0" type="matrix" in="shadowBlurOuter1"></feColorMatrix>
        </filter>
    </defs>
    <g id="Textures" stroke="none" stroke-width="1" fill="none" fill-rule="evenodd">
        <g id="Assets/Textures/alert_bounds">
            <g id="Group" transform="translate(41.000000, 43.000000)">
                <g id="Bubble" transform="translate(280.000000, 57.000000) scale(-1, 1) translate(-280.000000, -57.000000) ">
                    <use fill="black" fill-opacity="1" filter="url(#filter-3)" xlink:href="#path-2"></use>
                    <use stroke-opacity="0.9" stroke="#16FFFF" stroke-width="2" stroke-linecap="round" stroke-linejoin="round" xlink:href="#path-2"></use>
                    <use stroke="url(#linearGradient-1)" stroke-width="1" stroke-linecap="round" stroke-linejoin="round" xlink:href="#path-2"></use>
                </g>
                <g id="Group-2" transform="translate(92.000000, 25.000000)" fill="#16FFFF">
                    <path d="M12.35,22.478 C12.35,23.13667 12.2233346,23.7573304 11.97,24.34 C11.7166654,24.9226696 11.3746688,25.4293312 10.944,25.86 C10.5133312,26.2906688 10.0066696,26.6326654 9.424,26.886 C8.84133042,27.1393346 8.22066996,27.266 7.562,27.266 L6.118,27.266 C5.45933004,27.266 4.83866958,27.1393346 4.256,26.886 C3.67333042,26.6326654 3.16666882,26.2906688 2.736,25.86 C2.30533118,25.4293312 1.9633346,24.9226696 1.71,24.34 C1.4566654,23.7573304 1.33,23.13667 1.33,22.478 L1.33,4.922 C1.33,4.26333004 1.4566654,3.64266958 1.71,3.06 C1.9633346,2.47733042 2.30533118,1.97066882 2.736,1.54 C3.16666882,1.10933118 3.67333042,0.7673346 4.256,0.514 C4.83866958,0.2606654 5.45933004,0.134 6.118,0.134 L7.562,0.134 C8.22066996,0.134 8.84133042,0.2606654 9.424,0.514 C10.0066696,0.7673346 10.5133312,1.10933118 10.944,1.54 C11.3746688,1.97066882 11.7166654,2.47733042 11.97,3.06 C12.2233346,3.64266958 12.35,4.26333004 12.35,4.922 L12.35,22.478 Z M7.904,5.112 C7.904,4.8586654 7.81533422,4.64333422 7.638,4.466 C7.46066578,4.28866578 7.2453346,4.2 6.992,4.2 L6.688,4.2 C6.4346654,4.2 6.21933422,4.28866578 6.042,4.466 C5.86466578,4.64333422 5.776,4.8586654 5.776,5.112 L5.776,22.288 C5.776,22.5413346 5.86466578,22.7566658 6.042,22.934 C6.21933422,23.1113342 6.4346654,23.2 6.688,23.2 L6.992,23.2 C7.2453346,23.2 7.46066578,23.1113342 7.638,22.934 C7.81533422,22.7566658 7.904,22.5413346 7.904,22.288 L7.904,5.112 Z M21.0855293,0.4 C21.7441993,0.4 22.3648598,0.5266654 22.9475293,0.78 C23.5301989,1.0333346 24.0368605,1.37533118 24.4675293,1.806 C24.8981982,2.23666882 25.2401947,2.74333042 25.4935293,3.326 C25.7468639,3.90866958 25.8735293,4.52933004 25.8735293,5.188 L25.8735293,11.382 C25.8735293,12.04067 25.7468639,12.6613304 25.4935293,13.244 C25.2401947,13.8266696 24.8981982,14.3333312 24.4675293,14.764 C24.0368605,15.1946688 23.5301989,15.5366654 22.9475293,15.79 C22.3648598,16.0433346 21.7441993,16.17 21.0855293,16.17 L19.2995293,16.17 L19.2995293,26.468 C19.2995293,26.8226684 19.1221978,27 18.7675293,27 L15.3855293,27 C15.0308609,27 14.8535293,26.8226684 14.8535293,26.468 L14.8535293,0.932 C14.8535293,0.57733156 15.0308609,0.4 15.3855293,0.4 L21.0855293,0.4 Z M21.4275293,5.378 C21.4275293,5.1246654 21.3388636,4.90933422 21.1615293,4.732 C20.9841951,4.55466578 20.7688639,4.466 20.5155293,4.466 L19.2995293,4.466 L19.2995293,12.104 L20.5155293,12.104 C20.7688639,12.104 20.9841951,12.0153342 21.1615293,11.838 C21.3388636,11.6606658 21.4275293,11.4453346 21.4275293,11.192 L21.4275293,5.378 Z M33.6590587,0.134 C34.3177287,0.134 34.9383891,0.2606654 35.5210587,0.514 C36.1037283,0.7673346 36.6103899,1.10933118 37.0410587,1.54 C37.4717275,1.97066882 37.8137241,2.47733042 38.0670587,3.06 C38.3203933,3.64266958 38.4470587,4.26333004 38.4470587,4.922 L38.4470587,6.138 C38.4470587,6.49266844 38.2823937,6.72066616 37.9530587,6.822 L34.4950587,8.076 C34.1657237,8.17733384 34.0010587,8.05066844 34.0010587,7.696 L34.0010587,5.112 C34.0010587,4.8586654 33.9123929,4.64333422 33.7350587,4.466 C33.5577245,4.28866578 33.3423933,4.2 33.0890587,4.2 L32.7850587,4.2 C32.5317241,4.2 32.3163929,4.28866578 32.1390587,4.466 C31.9617245,4.64333422 31.8730587,4.8586654 31.8730587,5.112 L31.8730587,22.288 C31.8730587,22.5413346 31.9617245,22.7566658 32.1390587,22.934 C32.3163929,23.1113342 32.5317241,23.2 32.7850587,23.2 L33.0890587,23.2 C33.3423933,23.2 33.5577245,23.1113342 33.7350587,22.934 C33.9123929,22.7566658 34.0010587,22.5413346 34.0010587,22.288 L34.0010587,15.524 L32.9370587,15.524 L32.9370587,11.192 L37.9150587,11.192 C38.2697271,11.192 38.4470587,11.3693316 38.4470587,11.724 L38.4470587,22.478 C38.4470587,23.13667 38.3203933,23.7573304 38.0670587,24.34 C37.8137241,24.9226696 37.4717275,25.4293312 37.0410587,25.86 C36.6103899,26.2906688 36.1037283,26.6326654 35.5210587,26.886 C34.9383891,27.1393346 34.3177287,27.266 33.6590587,27.266 L32.2150587,27.266 C31.5563887,27.266 30.9357283,27.1393346 30.3530587,26.886 C29.7703891,26.6326654 29.2637275,26.2906688 28.8330587,25.86 C28.4023899,25.4293312 28.0603933,24.9226696 27.8070587,24.34 C27.5537241,23.7573304 27.4270587,23.13667 27.4270587,22.478 L27.4270587,4.922 C27.4270587,4.26333004 27.5537241,3.64266958 27.8070587,3.06 C28.0603933,2.47733042 28.4023899,1.97066882 28.8330587,1.54 C29.2637275,1.10933118 29.7703891,0.7673346 30.3530587,0.514 C30.9357283,0.2606654 31.5563887,0.134 32.2150587,0.134 L33.6590587,0.134 Z M49.728588,22.554 C50.0832565,22.554 50.260588,22.7313316 50.260588,23.086 L50.260588,26.468 C50.260588,26.8226684 50.0832565,27 49.728588,27 L41.482588,27 C41.1279196,27 40.950588,26.8226684 40.950588,26.468 L40.950588,0.932 C40.950588,0.57733156 41.1279196,0.4 41.482588,0.4 L49.728588,0.4 C50.0832565,0.4 50.260588,0.57733156 50.260588,0.932 L50.260588,4.314 C50.260588,4.66866844 50.0832565,4.846 49.728588,4.846 L45.396588,4.846 L45.396588,10.318 L49.158588,10.318 C49.5132565,10.318 49.690588,10.4953316 49.690588,10.85 L49.690588,14.232 C49.690588,14.5866684 49.5132565,14.764 49.158588,14.764 L45.396588,14.764 L45.396588,22.554 L49.728588,22.554 Z M59.1861174,0.4 C59.8447874,0.4 60.4654478,0.5266654 61.0481174,0.78 C61.630787,1.0333346 62.1374486,1.37533118 62.5681174,1.806 C62.9987862,2.23666882 63.3407828,2.74333042 63.5941174,3.326 C63.847452,3.90866958 63.9741174,4.52933004 63.9741174,5.188 L63.9741174,11.382 C63.9741174,12.04067 63.847452,12.6613304 63.5941174,13.244 C63.3407828,13.8266696 62.9987862,14.3333312 62.5681174,14.764 C62.1374486,15.1946688 61.630787,15.5366654 61.0481174,15.79 C60.4654478,16.0433346 59.8447874,16.17 59.1861174,16.17 L57.4001174,16.17 L57.4001174,26.468 C57.4001174,26.8226684 57.2227858,27 56.8681174,27 L53.4861174,27 C53.131449,27 52.9541174,26.8226684 52.9541174,26.468 L52.9541174,0.932 C52.9541174,0.57733156 53.131449,0.4 53.4861174,0.4 L59.1861174,0.4 Z M59.5281174,5.378 C59.5281174,5.1246654 59.4394516,4.90933422 59.2621174,4.732 C59.0847832,4.55466578 58.869452,4.466 58.6161174,4.466 L57.4001174,4.466 L57.4001174,12.104 L58.6161174,12.104 C58.869452,12.104 59.0847832,12.0153342 59.2621174,11.838 C59.4394516,11.6606658 59.5281174,11.4453346 59.5281174,11.192 L59.5281174,5.378 Z M76.3576467,26.468 C76.4083137,26.8226684 76.2563152,27 75.9016467,27 L72.4436467,27 C72.1143118,27 71.9243137,26.8226684 71.8736467,26.468 L71.5696467,22.364 L69.2136467,22.364 L68.9096467,26.468 C68.8589798,26.8226684 68.6689817,27 68.3396467,27 L64.8816467,27 C64.5269783,27 64.3749798,26.8226684 64.4256467,26.468 L67.2756467,0.932 C67.3263137,0.57733156 67.5289783,0.4 67.8836467,0.4 L72.8996467,0.4 C73.2543152,0.4 73.4569798,0.57733156 73.5076467,0.932 L76.3576467,26.468 Z M71.2656467,18.108 L70.5436467,7.81 L70.2396467,7.81 L69.5176467,18.108 L71.2656467,18.108 Z M83.9911761,0.134 C84.6498461,0.134 85.2705065,0.2606654 85.8531761,0.514 C86.4358457,0.7673346 86.9425073,1.10933118 87.3731761,1.54 C87.8038449,1.97066882 88.1458415,2.47733042 88.3991761,3.06 C88.6525107,3.64266958 88.7791761,4.26333004 88.7791761,4.922 L88.7791761,6.366 C88.7791761,6.72066844 88.6145111,6.94866616 88.2851761,7.05 L84.8271761,7.962 C84.4978411,8.06333384 84.3331761,7.93666844 84.3331761,7.582 L84.3331761,5.112 C84.3331761,4.8586654 84.2445103,4.64333422 84.0671761,4.466 C83.8898419,4.28866578 83.6745107,4.2 83.4211761,4.2 L83.1171761,4.2 C82.8638415,4.2 82.6485103,4.28866578 82.4711761,4.466 C82.2938419,4.64333422 82.2051761,4.8586654 82.2051761,5.112 L82.2051761,8.57 C82.2305096,8.84866806 82.2811757,9.08933232 82.3571761,9.292 C82.4331765,9.49466768 82.5725084,9.69733232 82.7751761,9.9 L87.7531761,13.624 C88.1585115,13.9786684 88.4181755,14.3396648 88.5321761,14.707 C88.6461767,15.0743352 88.7285092,15.4859977 88.7791761,15.942 L88.7791761,22.478 C88.7791761,23.13667 88.6525107,23.7573304 88.3991761,24.34 C88.1458415,24.9226696 87.8038449,25.4293312 87.3731761,25.86 C86.9425073,26.2906688 86.4358457,26.6326654 85.8531761,26.886 C85.2705065,27.1393346 84.6498461,27.266 83.9911761,27.266 L82.5471761,27.266 C81.8885061,27.266 81.2678457,27.1393346 80.6851761,26.886 C80.1025065,26.6326654 79.5958449,26.2906688 79.1651761,25.86 C78.7345073,25.4293312 78.3925107,24.9226696 78.1391761,24.34 C77.8858415,23.7573304 77.7591761,23.13667 77.7591761,22.478 L77.7591761,18.83 C77.7591761,18.4753316 77.9238411,18.2473338 78.2531761,18.146 L81.7111761,17.234 C82.0405111,17.1326662 82.2051761,17.2593316 82.2051761,17.614 L82.2051761,22.288 C82.2051761,22.5413346 82.2938419,22.7566658 82.4711761,22.934 C82.6485103,23.1113342 82.8638415,23.2 83.1171761,23.2 L83.4211761,23.2 C83.6745107,23.2 83.8898419,23.1113342 84.0671761,22.934 C84.2445103,22.7566658 84.3331761,22.5413346 84.3331761,22.288 L84.3331761,17.272 C84.3078426,16.942665 84.2571765,16.6513346 84.1811761,16.398 C84.1051757,16.1446654 83.9531772,15.9166677 83.7251761,15.714 L78.8231761,11.952 C78.4431742,11.5973316 78.1708436,11.2426684 78.0061761,10.888 C77.8415086,10.5333316 77.7591761,10.0646696 77.7591761,9.482 L77.7591761,4.922 C77.7591761,4.26333004 77.8858415,3.64266958 78.1391761,3.06 C78.3925107,2.47733042 78.7345073,1.97066882 79.1651761,1.54 C79.5958449,1.10933118 80.1025065,0.7673346 80.6851761,0.514 C81.2678457,0.2606654 81.8885061,0.134 82.5471761,0.134 L83.9911761,0.134 Z M100.098705,0.4 C100.453374,0.4 100.630705,0.57733156 100.630705,0.932 L100.630705,4.314 C100.630705,4.66866844 100.453374,4.846 100.098705,4.846 L97.4007054,4.846 L97.4007054,26.468 C97.4007054,26.8226684 97.2233739,27 96.8687054,27 L93.4867054,27 C93.3600381,27 93.239706,26.9493338 93.1257054,26.848 C93.0117049,26.7466662 92.9547054,26.6200008 92.9547054,26.468 L92.9547054,4.846 L90.2947054,4.846 C89.940037,4.846 89.7627054,4.66866844 89.7627054,4.314 L89.7627054,0.932 C89.7627054,0.57733156 89.940037,0.4 90.2947054,0.4 L100.098705,0.4 Z" id="Opgepast"></path>
                    <path d="M7.722,45.8 C7.96466788,45.8 8.086,45.9213321 8.086,46.164 L8.086,48.478 C8.086,48.7206679 7.96466788,48.842 7.722,48.842 L5.876,48.842 L5.876,63.636 C5.876,63.8786679 5.75466788,64 5.512,64 L3.198,64 C3.1113329,64 3.02900039,63.9653337 2.951,63.896 C2.87299961,63.8266663 2.834,63.7400005 2.834,63.636 L2.834,48.842 L1.014,48.842 C0.77133212,48.842 0.65,48.7206679 0.65,48.478 L0.65,46.164 C0.65,45.9213321 0.77133212,45.8 1.014,45.8 L7.722,45.8 Z M15.5449412,60.958 C15.787609,60.958 15.9089412,61.0793321 15.9089412,61.322 L15.9089412,63.636 C15.9089412,63.8786679 15.787609,64 15.5449412,64 L9.90294116,64 C9.66027328,64 9.53894116,63.8786679 9.53894116,63.636 L9.53894116,48.764 C9.53894116,48.5213321 9.66027328,48.4 9.90294116,48.4 L15.5449412,48.4 C15.787609,48.4 15.9089412,48.5213321 15.9089412,48.764 L15.9089412,51.078 C15.9089412,51.3206679 15.787609,51.442 15.5449412,51.442 L12.5809412,51.442 L12.5809412,54.406 L15.1549412,54.406 C15.397609,54.406 15.5189412,54.5273321 15.5189412,54.77 L15.5189412,57.084 C15.5189412,57.3266679 15.397609,57.448 15.1549412,57.448 L12.5809412,57.448 L12.5809412,60.958 L15.5449412,60.958 Z M26.2798823,48.4 C26.3838828,48.4 26.4532155,48.4389996 26.4878823,48.517 C26.5225492,48.5950004 26.5225492,48.6773329 26.4878823,48.764 L22.9518823,55.394 L26.4358823,63.636 C26.4705492,63.7226671 26.4618826,63.8049996 26.4098823,63.883 C26.3578821,63.9610004 26.2798828,64 26.1758823,64 L23.6018823,64 C23.4978818,64 23.4025494,63.969667 23.3158823,63.909 C23.2292152,63.848333 23.1685492,63.7746671 23.1338823,63.688 L21.2358823,59.372 L20.7938823,60.204 L20.7938823,63.636 C20.7938823,63.8786679 20.6725502,64 20.4298823,64 L18.1158823,64 C17.8732144,64 17.7518823,63.8786679 17.7518823,63.636 L17.7518823,48.764 C17.7518823,48.5213321 17.8732144,48.4 18.1158823,48.4 L20.4298823,48.4 C20.6725502,48.4 20.7938823,48.5213321 20.7938823,48.764 L20.7938823,53.314 L23.1858823,48.712 C23.2725494,48.503999 23.4372144,48.4 23.6798823,48.4 L26.2798823,48.4 Z M33.8688235,60.958 C34.1114913,60.958 34.2328235,61.0793321 34.2328235,61.322 L34.2328235,63.636 C34.2328235,63.8786679 34.1114913,64 33.8688235,64 L28.2268235,64 C27.9841556,64 27.8628235,63.8786679 27.8628235,63.636 L27.8628235,48.764 C27.8628235,48.5213321 27.9841556,48.4 28.2268235,48.4 L33.8688235,48.4 C34.1114913,48.4 34.2328235,48.5213321 34.2328235,48.764 L34.2328235,51.078 C34.2328235,51.3206679 34.1114913,51.442 33.8688235,51.442 L30.9048235,51.442 L30.9048235,54.406 L33.4788235,54.406 C33.7214913,54.406 33.8428235,54.5273321 33.8428235,54.77 L33.8428235,57.084 C33.8428235,57.3266679 33.7214913,57.448 33.4788235,57.448 L30.9048235,57.448 L30.9048235,60.958 L33.8688235,60.958 Z M43.9017646,48.4 C44.1444325,48.4 44.2657646,48.5213321 44.2657646,48.764 L44.2657646,63.636 C44.2657646,63.8786679 44.1444325,64 43.9017646,64 L42.2377646,64 C42.1337641,64 42.0340984,63.9653337 41.9387646,63.896 C41.8434308,63.8266663 41.7784315,63.7486671 41.7437646,63.662 L38.9877646,56.876 L38.9877646,63.636 C38.9877646,63.8786679 38.8664325,64 38.6237646,64 L36.3097646,64 C36.0670967,64 35.9457646,63.8786679 35.9457646,63.636 L35.9457646,48.764 C35.9457646,48.5213321 36.0670967,48.4 36.3097646,48.4 L38.0257646,48.4 C38.1297651,48.4 38.2294308,48.4346663 38.3247646,48.504 C38.4200984,48.5733337 38.4850978,48.6513329 38.5197646,48.738 L41.2237646,56.304 L41.2237646,48.764 C41.2237646,48.5213321 41.3450967,48.4 41.5877646,48.4 L43.9017646,48.4 Z M55.9596469,48.4 C56.2023148,48.4 56.3236469,48.5213321 56.3236469,48.764 L56.3236469,60.906 C56.3236469,61.3566689 56.2369811,61.7813313 56.0636469,62.18 C55.8903127,62.5786687 55.6563151,62.9253319 55.3616469,63.22 C55.0669788,63.5146681 54.7203156,63.7486658 54.3216469,63.922 C53.9229783,64.0953342 53.4983159,64.182 53.0476469,64.182 L52.0596469,64.182 C51.608978,64.182 51.1843156,64.0953342 50.7856469,63.922 C50.3869783,63.7486658 50.0403151,63.5146681 49.7456469,63.22 C49.4509788,62.9253319 49.2169811,62.5786687 49.0436469,62.18 C48.8703127,61.7813313 48.7836469,61.3566689 48.7836469,60.906 L48.7836469,58.124 C48.7836469,57.8813321 48.8963125,57.7253337 49.1216469,57.656 L51.4876469,57.032 C51.7129814,56.9626663 51.8256469,57.0493321 51.8256469,57.292 L51.8256469,60.776 C51.8256469,60.9493342 51.886313,61.0966661 52.0076469,61.218 C52.1289809,61.3393339 52.2763127,61.4 52.4496469,61.4 L52.6576469,61.4 C52.8309811,61.4 52.978313,61.3393339 53.0996469,61.218 C53.2209809,61.0966661 53.2816469,60.9493342 53.2816469,60.776 L53.2816469,48.764 C53.2816469,48.5213321 53.4029791,48.4 53.6456469,48.4 L55.9596469,48.4 Z M64.1725881,60.958 C64.415256,60.958 64.5365881,61.0793321 64.5365881,61.322 L64.5365881,63.636 C64.5365881,63.8786679 64.415256,64 64.1725881,64 L58.5305881,64 C58.2879202,64 58.1665881,63.8786679 58.1665881,63.636 L58.1665881,48.764 C58.1665881,48.5213321 58.2879202,48.4 58.5305881,48.4 L64.1725881,48.4 C64.415256,48.4 64.5365881,48.5213321 64.5365881,48.764 L64.5365881,51.078 C64.5365881,51.3206679 64.415256,51.442 64.1725881,51.442 L61.2085881,51.442 L61.2085881,54.406 L63.7825881,54.406 C64.025256,54.406 64.1465881,54.5273321 64.1465881,54.77 L64.1465881,57.084 C64.1465881,57.3266679 64.025256,57.448 63.7825881,57.448 L61.2085881,57.448 L61.2085881,60.958 L64.1725881,60.958 Z M73.4484704,48.218 C73.8991393,48.218 74.3238017,48.3046658 74.7224704,48.478 C75.1211391,48.6513342 75.4678023,48.8853319 75.7624704,49.18 C76.0571385,49.4746681 76.2911362,49.8213313 76.4644704,50.22 C76.6378046,50.6186687 76.7244704,51.0433311 76.7244704,51.494 L76.7244704,53.054 C76.7244704,53.2966679 76.6118049,53.4526663 76.3864704,53.522 L74.0204704,53.886 C73.7951359,53.9553337 73.6824704,53.8686679 73.6824704,53.626 L73.6824704,51.624 C73.6824704,51.4506658 73.6218043,51.3033339 73.5004704,51.182 C73.3791365,51.0606661 73.2318046,51 73.0584704,51 L72.8504704,51 C72.6771362,51 72.5298043,51.0606661 72.4084704,51.182 C72.2871365,51.3033339 72.2264704,51.4506658 72.2264704,51.624 L72.2264704,60.776 C72.2264704,60.9493342 72.2871365,61.0966661 72.4084704,61.218 C72.5298043,61.3393339 72.6771362,61.4 72.8504704,61.4 L73.0584704,61.4 C73.2318046,61.4 73.3791365,61.3393339 73.5004704,61.218 C73.6218043,61.0966661 73.6824704,60.9493342 73.6824704,60.776 L73.6824704,57.656 C73.6824704,57.4133321 73.7951359,57.3266663 74.0204704,57.396 L76.3864704,57.708 C76.6118049,57.7773337 76.7244704,57.9333321 76.7244704,58.176 L76.7244704,60.906 C76.7244704,61.3566689 76.6378046,61.7813313 76.4644704,62.18 C76.2911362,62.5786687 76.0571385,62.9253319 75.7624704,63.22 C75.4678023,63.5146681 75.1211391,63.7486658 74.7224704,63.922 C74.3238017,64.0953342 73.8991393,64.182 73.4484704,64.182 L72.4604704,64.182 C72.0098015,64.182 71.5851391,64.0953342 71.1864704,63.922 C70.7878017,63.7486658 70.4411385,63.5146681 70.1464704,63.22 C69.8518023,62.9253319 69.6178046,62.5786687 69.4444704,62.18 C69.2711362,61.7813313 69.1844704,61.3566689 69.1844704,60.906 L69.1844704,51.494 C69.1844704,51.0433311 69.2711362,50.6186687 69.4444704,50.22 C69.6178046,49.8213313 69.8518023,49.4746681 70.1464704,49.18 C70.4411385,48.8853319 70.7878017,48.6513342 71.1864704,48.478 C71.5851391,48.3046658 72.0098015,48.218 72.4604704,48.218 L73.4484704,48.218 Z M81.3494116,63.636 C81.3494116,63.8786679 81.2280794,64 80.9854116,64 L78.6714116,64 C78.4287437,64 78.3074116,63.8786679 78.3074116,63.636 L78.3074116,48.764 C78.3074116,48.5213321 78.4287437,48.4 78.6714116,48.4 L80.9854116,48.4 C81.2280794,48.4 81.3494116,48.5213321 81.3494116,48.764 L81.3494116,63.636 Z M86.3643527,63.636 C86.3643527,63.8786679 86.234354,64 85.9743527,64 L83.6603527,64 C83.4350183,64 83.3223527,63.8786679 83.3223527,63.636 L83.3223527,48.764 C83.3223527,48.5213321 83.4436848,48.4 83.6863527,48.4 L87.5863527,48.4 C88.0370216,48.4 88.4616841,48.4866658 88.8603527,48.66 C89.2590214,48.8333342 89.6056846,49.0673319 89.9003527,49.362 C90.1950209,49.6566681 90.4290185,50.0033313 90.6023527,50.402 C90.7756869,50.8006687 90.8623527,51.2253311 90.8623527,51.676 L90.8623527,54.874 C90.8623527,55.5153365 90.671688,56.0916641 90.2903527,56.603 C89.9090175,57.1143359 89.4496887,57.5086653 88.9123527,57.786 L91.3823527,63.636 C91.434353,63.8786679 91.3476872,64 91.1223527,64 L88.7563527,64 C88.6523522,64 88.5526865,63.9653337 88.4573527,63.896 C88.3620189,63.8266663 88.2970196,63.7400005 88.2623527,63.636 L86.3643527,58.826 L86.3643527,63.636 Z M86.3643527,55.368 L87.1963527,55.368 C87.3696869,55.368 87.5170188,55.3073339 87.6383527,55.186 C87.7596867,55.0646661 87.8203527,54.9173342 87.8203527,54.744 L87.8203527,51.806 C87.8203527,51.6326658 87.7596867,51.4853339 87.6383527,51.364 C87.5170188,51.2426661 87.3696869,51.182 87.1963527,51.182 L86.3643527,51.182 L86.3643527,55.368 Z M101.259294,48.4 C101.363294,48.4 101.432627,48.4389996 101.467294,48.517 C101.501961,48.5950004 101.501961,48.6773329 101.467294,48.764 L97.9312939,55.394 L101.415294,63.636 C101.449961,63.7226671 101.441294,63.8049996 101.389294,63.883 C101.337294,63.9610004 101.259294,64 101.155294,64 L98.5812939,64 C98.4772934,64 98.381961,63.969667 98.2952939,63.909 C98.2086268,63.848333 98.1479607,63.7746671 98.1132939,63.688 L96.2152939,59.372 L95.7732939,60.204 L95.7732939,63.636 C95.7732939,63.8786679 95.6519618,64 95.4092939,64 L93.0952939,64 C92.852626,64 92.7312939,63.8786679 92.7312939,63.636 L92.7312939,48.764 C92.7312939,48.5213321 92.852626,48.4 93.0952939,48.4 L95.4092939,48.4 C95.6519618,48.4 95.7732939,48.5213321 95.7732939,48.764 L95.7732939,53.314 L98.1652939,48.712 C98.251961,48.503999 98.416626,48.4 98.6592939,48.4 L101.259294,48.4 Z M108.848235,60.958 C109.090903,60.958 109.212235,61.0793321 109.212235,61.322 L109.212235,63.636 C109.212235,63.8786679 109.090903,64 108.848235,64 L103.206235,64 C102.963567,64 102.842235,63.8786679 102.842235,63.636 L102.842235,48.764 C102.842235,48.5213321 102.963567,48.4 103.206235,48.4 L108.848235,48.4 C109.090903,48.4 109.212235,48.5213321 109.212235,48.764 L109.212235,51.078 C109.212235,51.3206679 109.090903,51.442 108.848235,51.442 L105.884235,51.442 L105.884235,54.406 L108.458235,54.406 C108.700903,54.406 108.822235,54.5273321 108.822235,54.77 L108.822235,57.084 C108.822235,57.3266679 108.700903,57.448 108.458235,57.448 L105.884235,57.448 L105.884235,60.958 L108.848235,60.958 Z M117.451176,60.958 C117.693844,60.958 117.815176,61.0793321 117.815176,61.322 L117.815176,63.636 C117.815176,63.8786679 117.693844,64 117.451176,64 L111.549176,64 C111.306508,64 111.185176,63.8786679 111.185176,63.636 L111.185176,48.764 C111.185176,48.5213321 111.306508,48.4 111.549176,48.4 L113.863176,48.4 C114.105844,48.4 114.227176,48.5213321 114.227176,48.764 L114.227176,60.958 L117.451176,60.958 Z M130.289059,48.4 C130.531726,48.4 130.653059,48.5213321 130.653059,48.764 L130.653059,63.636 C130.653059,63.8786679 130.531726,64 130.289059,64 L128.625059,64 C128.521058,64 128.421392,63.9653337 128.326059,63.896 C128.230725,63.8266663 128.165725,63.7486671 128.131059,63.662 L125.375059,56.876 L125.375059,63.636 C125.375059,63.8786679 125.253726,64 125.011059,64 L122.697059,64 C122.454391,64 122.333059,63.8786679 122.333059,63.636 L122.333059,48.764 C122.333059,48.5213321 122.454391,48.4 122.697059,48.4 L124.413059,48.4 C124.517059,48.4 124.616725,48.4346663 124.712059,48.504 C124.807392,48.5733337 124.872392,48.6513329 124.907059,48.738 L127.611059,56.304 L127.611059,48.764 C127.611059,48.5213321 127.732391,48.4 127.975059,48.4 L130.289059,48.4 Z M135.668,63.636 C135.668,63.8786679 135.546668,64 135.304,64 L132.99,64 C132.747332,64 132.626,63.8786679 132.626,63.636 L132.626,48.764 C132.626,48.5213321 132.747332,48.4 132.99,48.4 L135.304,48.4 C135.546668,48.4 135.668,48.5213321 135.668,48.764 L135.668,63.636 Z M143.646941,60.958 C143.889609,60.958 144.010941,61.0793321 144.010941,61.322 L144.010941,63.636 C144.010941,63.8786679 143.889609,64 143.646941,64 L138.004941,64 C137.762273,64 137.640941,63.8786679 137.640941,63.636 L137.640941,48.764 C137.640941,48.5213321 137.762273,48.4 138.004941,48.4 L143.646941,48.4 C143.889609,48.4 144.010941,48.5213321 144.010941,48.764 L144.010941,51.078 C144.010941,51.3206679 143.889609,51.442 143.646941,51.442 L140.682941,51.442 L140.682941,54.406 L143.256941,54.406 C143.499609,54.406 143.620941,54.5273321 143.620941,54.77 L143.620941,57.084 C143.620941,57.3266679 143.499609,57.448 143.256941,57.448 L140.682941,57.448 L140.682941,60.958 L143.646941,60.958 Z M152.405882,48.4 C152.64855,48.4 152.769882,48.5213321 152.769882,48.764 L152.769882,51.078 C152.769882,51.3206679 152.64855,51.442 152.405882,51.442 L150.559882,51.442 L150.559882,63.636 C150.559882,63.8786679 150.43855,64 150.195882,64 L147.881882,64 C147.795215,64 147.712882,63.9653337 147.634882,63.896 C147.556882,63.8266663 147.517882,63.7400005 147.517882,63.636 L147.517882,51.442 L145.697882,51.442 C145.455214,51.442 145.333882,51.3206679 145.333882,51.078 L145.333882,48.764 C145.333882,48.5213321 145.455214,48.4 145.697882,48.4 L152.405882,48.4 Z M164.099764,56.642 C164.342432,56.8846679 164.52443,57.170665 164.645764,57.5 C164.767098,57.829335 164.827764,58.1933313 164.827764,58.592 L164.827764,60.724 C164.827764,61.1746689 164.741098,61.5993313 164.567764,61.998 C164.39443,62.3966687 164.160432,62.7433319 163.865764,63.038 C163.571096,63.3326681 163.224433,63.5666658 162.825764,63.74 C162.427096,63.9133342 162.002433,64 161.551764,64 L157.729764,64 C157.625764,64 157.526098,63.9870001 157.430764,63.961 C157.33543,63.9349999 157.287764,63.8266676 157.287764,63.636 L157.287764,48.764 C157.287764,48.5213321 157.409096,48.4 157.651764,48.4 L161.551764,48.4 C162.002433,48.4 162.427096,48.4866658 162.825764,48.66 C163.224433,48.8333342 163.571096,49.0673319 163.865764,49.362 C164.160432,49.6566681 164.39443,50.0033313 164.567764,50.402 C164.741098,50.8006687 164.827764,51.2253311 164.827764,51.676 L164.827764,53.392 C164.827764,54.1893373 164.5851,54.856664 164.099764,55.394 C163.839763,55.6713347 163.527766,55.8966658 163.163764,56.07 C163.5451,56.2086674 163.857096,56.3993321 164.099764,56.642 Z M161.785764,58.176 C161.785764,58.0026658 161.725098,57.8553339 161.603764,57.734 C161.48243,57.6126661 161.335098,57.552 161.161764,57.552 L160.329764,57.552 L160.329764,61.218 L161.161764,61.218 C161.335098,61.218 161.48243,61.1573339 161.603764,61.036 C161.725098,60.9146661 161.785764,60.7673342 161.785764,60.594 L161.785764,58.176 Z M161.785764,51.806 C161.785764,51.6326658 161.725098,51.4853339 161.603764,51.364 C161.48243,51.2426661 161.335098,51.182 161.161764,51.182 L160.329764,51.182 L160.329764,54.718 L161.161764,54.718 C161.335098,54.718 161.48243,54.6573339 161.603764,54.536 C161.725098,54.4146661 161.785764,54.2673342 161.785764,54.094 L161.785764,51.806 Z M173.326705,48.4 C173.569373,48.4 173.690705,48.5213321 173.690705,48.764 L173.690705,60.906 C173.690705,61.3566689 173.60404,61.7813313 173.430705,62.18 C173.257371,62.5786687 173.023374,62.9253319 172.728705,63.22 C172.434037,63.5146681 172.087374,63.7486658 171.688705,63.922 C171.290037,64.0953342 170.865374,64.182 170.414705,64.182 L169.426705,64.182 C168.976037,64.182 168.551374,64.0953342 168.152705,63.922 C167.754037,63.7486658 167.407374,63.5146681 167.112705,63.22 C166.818037,62.9253319 166.58404,62.5786687 166.410705,62.18 C166.237371,61.7813313 166.150705,61.3566689 166.150705,60.906 L166.150705,48.764 C166.150705,48.5213321 166.272038,48.4 166.514705,48.4 L168.828705,48.4 C169.071373,48.4 169.192705,48.5213321 169.192705,48.764 L169.192705,60.776 C169.192705,60.9493342 169.253372,61.0966661 169.374705,61.218 C169.496039,61.3393339 169.643371,61.4 169.816705,61.4 L170.024705,61.4 C170.19804,61.4 170.345372,61.3393339 170.466705,61.218 C170.588039,61.0966661 170.648705,60.9493342 170.648705,60.776 L170.648705,48.764 C170.648705,48.5213321 170.770038,48.4 171.012705,48.4 L173.326705,48.4 Z M178.445647,63.636 C178.445647,63.8786679 178.324314,64 178.081647,64 L175.767647,64 C175.524979,64 175.403647,63.8786679 175.403647,63.636 L175.403647,48.764 C175.403647,48.5213321 175.524979,48.4 175.767647,48.4 L178.081647,48.4 C178.324314,48.4 178.445647,48.5213321 178.445647,48.764 L178.445647,63.636 Z M186.970588,48.4 C187.213256,48.4 187.334588,48.5213321 187.334588,48.764 L187.334588,51.078 C187.334588,51.3206679 187.213256,51.442 186.970588,51.442 L185.124588,51.442 L185.124588,63.636 C185.124588,63.8786679 185.003256,64 184.760588,64 L182.446588,64 C182.359921,64 182.277588,63.9653337 182.199588,63.896 C182.121587,63.8266663 182.082588,63.7400005 182.082588,63.636 L182.082588,51.442 L180.262588,51.442 C180.01992,51.442 179.898588,51.3206679 179.898588,51.078 L179.898588,48.764 C179.898588,48.5213321 180.01992,48.4 180.262588,48.4 L186.970588,48.4 Z M194.793529,60.958 C195.036197,60.958 195.157529,61.0793321 195.157529,61.322 L195.157529,63.636 C195.157529,63.8786679 195.036197,64 194.793529,64 L189.151529,64 C188.908861,64 188.787529,63.8786679 188.787529,63.636 L188.787529,48.764 C188.787529,48.5213321 188.908861,48.4 189.151529,48.4 L194.793529,48.4 C195.036197,48.4 195.157529,48.5213321 195.157529,48.764 L195.157529,51.078 C195.157529,51.3206679 195.036197,51.442 194.793529,51.442 L191.829529,51.442 L191.829529,54.406 L194.403529,54.406 C194.646197,54.406 194.767529,54.5273321 194.767529,54.77 L194.767529,57.084 C194.767529,57.3266679 194.646197,57.448 194.403529,57.448 L191.829529,57.448 L191.829529,60.958 L194.793529,60.958 Z M204.82647,48.4 C205.069138,48.4 205.19047,48.5213321 205.19047,48.764 L205.19047,63.636 C205.19047,63.8786679 205.069138,64 204.82647,64 L203.16247,64 C203.05847,64 202.958804,63.9653337 202.86347,63.896 C202.768136,63.8266663 202.703137,63.7486671 202.66847,63.662 L199.91247,56.876 L199.91247,63.636 C199.91247,63.8786679 199.791138,64 199.54847,64 L197.23447,64 C196.991802,64 196.87047,63.8786679 196.87047,63.636 L196.87047,48.764 C196.87047,48.5213321 196.991802,48.4 197.23447,48.4 L198.95047,48.4 C199.054471,48.4 199.154136,48.4346663 199.24947,48.504 C199.344804,48.5733337 199.409803,48.6513329 199.44447,48.738 L202.14847,56.304 L202.14847,48.764 C202.14847,48.5213321 202.269802,48.4 202.51247,48.4 L204.82647,48.4 Z M217.664352,48.4 C217.90702,48.4 218.028352,48.5213321 218.028352,48.764 L218.028352,63.636 C218.028352,63.8786679 217.90702,64 217.664352,64 L215.350352,64 C215.107685,64 214.986352,63.8786679 214.986352,63.636 L214.986352,57.76 L213.270352,57.76 L213.270352,63.636 C213.270352,63.8786679 213.14902,64 212.906352,64 L210.592352,64 C210.349685,64 210.228352,63.8786679 210.228352,63.636 L210.228352,48.764 C210.228352,48.5213321 210.349685,48.4 210.592352,48.4 L212.906352,48.4 C213.14902,48.4 213.270352,48.5213321 213.270352,48.764 L213.270352,54.718 L214.986352,54.718 L214.986352,48.764 C214.986352,48.5213321 215.107685,48.4 215.350352,48.4 L217.664352,48.4 Z M226.007294,60.958 C226.249961,60.958 226.371294,61.0793321 226.371294,61.322 L226.371294,63.636 C226.371294,63.8786679 226.249961,64 226.007294,64 L220.365294,64 C220.122626,64 220.001294,63.8786679 220.001294,63.636 L220.001294,48.764 C220.001294,48.5213321 220.122626,48.4 220.365294,48.4 L226.007294,48.4 C226.249961,48.4 226.371294,48.5213321 226.371294,48.764 L226.371294,51.078 C226.371294,51.3206679 226.249961,51.442 226.007294,51.442 L223.043294,51.442 L223.043294,54.406 L225.617294,54.406 C225.859961,54.406 225.981294,54.5273321 225.981294,54.77 L225.981294,57.084 C225.981294,57.3266679 225.859961,57.448 225.617294,57.448 L223.043294,57.448 L223.043294,60.958 L226.007294,60.958 Z M234.766235,48.4 C235.008903,48.4 235.130235,48.5213321 235.130235,48.764 L235.130235,51.078 C235.130235,51.3206679 235.008903,51.442 234.766235,51.442 L232.920235,51.442 L232.920235,63.636 C232.920235,63.8786679 232.798903,64 232.556235,64 L230.242235,64 C230.155568,64 230.073235,63.9653337 229.995235,63.896 C229.917234,63.8266663 229.878235,63.7400005 229.878235,63.636 L229.878235,51.442 L228.058235,51.442 C227.815567,51.442 227.694235,51.3206679 227.694235,51.078 L227.694235,48.764 C227.694235,48.5213321 227.815567,48.4 228.058235,48.4 L234.766235,48.4 Z M243.522117,48.218 C243.972786,48.218 244.397448,48.3046658 244.796117,48.478 C245.194786,48.6513342 245.541449,48.8853319 245.836117,49.18 C246.130785,49.4746681 246.364783,49.8213313 246.538117,50.22 C246.711451,50.6186687 246.798117,51.0433311 246.798117,51.494 L246.798117,52.482 C246.798117,52.7246679 246.685451,52.8806663 246.460117,52.95 L244.094117,53.574 C243.868783,53.6433337 243.756117,53.5566679 243.756117,53.314 L243.756117,51.624 C243.756117,51.4506658 243.695451,51.3033339 243.574117,51.182 C243.452783,51.0606661 243.305451,51 243.132117,51 L242.924117,51 C242.750783,51 242.603451,51.0606661 242.482117,51.182 C242.360783,51.3033339 242.300117,51.4506658 242.300117,51.624 L242.300117,53.21 C242.31745,53.4006676 242.352117,53.5653326 242.404117,53.704 C242.456117,53.8426674 242.55145,53.9813326 242.690117,54.12 L246.096117,56.668 C246.373452,56.9106679 246.551117,57.1576654 246.629117,57.409 C246.707117,57.6603346 246.76345,57.9419984 246.798117,58.254 L246.798117,60.906 C246.798117,61.3566689 246.711451,61.7813313 246.538117,62.18 C246.364783,62.5786687 246.130785,62.9253319 245.836117,63.22 C245.541449,63.5146681 245.194786,63.7486658 244.796117,63.922 C244.397448,64.0953342 243.972786,64.182 243.522117,64.182 L242.534117,64.182 C242.083448,64.182 241.658786,64.0953342 241.260117,63.922 C240.861448,63.7486658 240.514785,63.5146681 240.220117,63.22 C239.925449,62.9253319 239.691451,62.5786687 239.518117,62.18 C239.344783,61.7813313 239.258117,61.3566689 239.258117,60.906 L239.258117,59.45 C239.258117,59.2073321 239.370783,59.0513337 239.596117,58.982 L241.962117,58.358 C242.187451,58.2886663 242.300117,58.3753321 242.300117,58.618 L242.300117,60.776 C242.300117,60.9493342 242.360783,61.0966661 242.482117,61.218 C242.603451,61.3393339 242.750783,61.4 242.924117,61.4 L243.132117,61.4 C243.305451,61.4 243.452783,61.3393339 243.574117,61.218 C243.695451,61.0966661 243.756117,60.9493342 243.756117,60.776 L243.756117,59.164 C243.738784,58.9386655 243.704117,58.7393342 243.652117,58.566 C243.600117,58.3926658 243.496118,58.2366674 243.340117,58.098 L239.986117,55.524 C239.726116,55.2813321 239.539784,55.0386679 239.427117,54.796 C239.31445,54.5533321 239.258117,54.2326687 239.258117,53.834 L239.258117,51.494 C239.258117,51.0433311 239.344783,50.6186687 239.518117,50.22 C239.691451,49.8213313 239.925449,49.4746681 240.220117,49.18 C240.514785,48.8853319 240.861448,48.6513342 241.260117,48.478 C241.658786,48.3046658 242.083448,48.218 242.534117,48.218 L243.522117,48.218 Z M252.645058,48.4 C253.095727,48.4 253.52039,48.4866658 253.919058,48.66 C254.317727,48.8333342 254.66439,49.0673319 254.959058,49.362 C255.253726,49.6566681 255.487724,50.0033313 255.661058,50.402 C255.834392,50.8006687 255.921058,51.2253311 255.921058,51.676 L255.921058,55.134 C255.921058,55.5846689 255.834392,56.0093313 255.661058,56.408 C255.487724,56.8066687 255.253726,57.1533319 254.959058,57.448 C254.66439,57.7426681 254.317727,57.9766658 253.919058,58.15 C253.52039,58.3233342 253.095727,58.41 252.645058,58.41 L251.423058,58.41 L251.423058,63.636 C251.423058,63.8786679 251.301726,64 251.059058,64 L248.745058,64 C248.50239,64 248.381058,63.8786679 248.381058,63.636 L248.381058,48.764 C248.381058,48.5213321 248.50239,48.4 248.745058,48.4 L252.645058,48.4 Z M252.879058,51.806 C252.879058,51.6326658 252.818392,51.4853339 252.697058,51.364 C252.575724,51.2426661 252.428392,51.182 252.255058,51.182 L251.423058,51.182 L251.423058,55.628 L252.255058,55.628 C252.428392,55.628 252.575724,55.5673339 252.697058,55.446 C252.818392,55.3246661 252.879058,55.1773342 252.879058,55.004 L252.879058,51.806 Z M263.249999,60.958 C263.492667,60.958 263.613999,61.0793321 263.613999,61.322 L263.613999,63.636 C263.613999,63.8786679 263.492667,64 263.249999,64 L257.607999,64 C257.365331,64 257.243999,63.8786679 257.243999,63.636 L257.243999,48.764 C257.243999,48.5213321 257.365331,48.4 257.607999,48.4 L263.249999,48.4 C263.492667,48.4 263.613999,48.5213321 263.613999,48.764 L263.613999,51.078 C263.613999,51.3206679 263.492667,51.442 263.249999,51.442 L260.285999,51.442 L260.285999,54.406 L262.859999,54.406 C263.102667,54.406 263.223999,54.5273321 263.223999,54.77 L263.223999,57.084 C263.223999,57.3266679 263.102667,57.448 262.859999,57.448 L260.285999,57.448 L260.285999,60.958 L263.249999,60.958 Z M271.46294,60.958 C271.705608,60.958 271.82694,61.0793321 271.82694,61.322 L271.82694,63.636 C271.82694,63.8786679 271.705608,64 271.46294,64 L265.82094,64 C265.578273,64 265.45694,63.8786679 265.45694,63.636 L265.45694,48.764 C265.45694,48.5213321 265.578273,48.4 265.82094,48.4 L271.46294,48.4 C271.705608,48.4 271.82694,48.5213321 271.82694,48.764 L271.82694,51.078 C271.82694,51.3206679 271.705608,51.442 271.46294,51.442 L268.49894,51.442 L268.49894,54.406 L271.07294,54.406 C271.315608,54.406 271.43694,54.5273321 271.43694,54.77 L271.43694,57.084 C271.43694,57.3266679 271.315608,57.448 271.07294,57.448 L268.49894,57.448 L268.49894,60.958 L271.46294,60.958 Z M280.065882,60.958 C280.30855,60.958 280.429882,61.0793321 280.429882,61.322 L280.429882,63.636 C280.429882,63.8786679 280.30855,64 280.065882,64 L274.163882,64 C273.921214,64 273.799882,63.8786679 273.799882,63.636 L273.799882,48.764 C273.799882,48.5213321 273.921214,48.4 274.163882,48.4 L276.477882,48.4 C276.72055,48.4 276.841882,48.5213321 276.841882,48.764 L276.841882,60.958 L280.065882,60.958 Z M288.902823,48.4 C289.145491,48.4 289.24949,48.5213321 289.214823,48.764 L286.146823,63.636 C286.112156,63.8786679 285.973491,64 285.730823,64 L283.442823,64 C283.200155,64 283.06149,63.8786679 283.026823,63.636 L279.958823,48.764 C279.924156,48.5213321 280.028155,48.4 280.270823,48.4 L283.078823,48.4 C283.304157,48.4 283.434156,48.5213321 283.468823,48.764 L284.534823,58.488 L284.638823,58.488 L285.704823,48.764 C285.73949,48.5213321 285.869488,48.4 286.094823,48.4 L288.902823,48.4 Z M296.309764,60.958 C296.552432,60.958 296.673764,61.0793321 296.673764,61.322 L296.673764,63.636 C296.673764,63.8786679 296.552432,64 296.309764,64 L290.667764,64 C290.425096,64 290.303764,63.8786679 290.303764,63.636 L290.303764,48.764 C290.303764,48.5213321 290.425096,48.4 290.667764,48.4 L296.309764,48.4 C296.552432,48.4 296.673764,48.5213321 296.673764,48.764 L296.673764,51.078 C296.673764,51.3206679 296.552432,51.442 296.309764,51.442 L293.345764,51.442 L293.345764,54.406 L295.919764,54.406 C296.162432,54.406 296.283764,54.5273321 296.283764,54.77 L296.283764,57.084 C296.283764,57.3266679 296.162432,57.448 295.919764,57.448 L293.345764,57.448 L293.345764,60.958 L296.309764,60.958 Z M304.912705,60.958 C305.155373,60.958 305.276705,61.0793321 305.276705,61.322 L305.276705,63.636 C305.276705,63.8786679 305.155373,64 304.912705,64 L299.010705,64 C298.768037,64 298.646705,63.8786679 298.646705,63.636 L298.646705,48.764 C298.646705,48.5213321 298.768037,48.4 299.010705,48.4 L301.324705,48.4 C301.567373,48.4 301.688705,48.5213321 301.688705,48.764 L301.688705,60.958 L304.912705,60.958 Z M310.993646,48.4 C311.444315,48.4 311.868978,48.4866658 312.267646,48.66 C312.666315,48.8333342 313.012978,49.0673319 313.307646,49.362 C313.602314,49.6566681 313.836312,50.0033313 314.009646,50.402 C314.18298,50.8006687 314.269646,51.2253311 314.269646,51.676 L314.269646,60.724 C314.269646,61.1746689 314.18298,61.5993313 314.009646,61.998 C313.836312,62.3966687 313.602314,62.7433319 313.307646,63.038 C313.012978,63.3326681 312.666315,63.5666658 312.267646,63.74 C311.868978,63.9133342 311.444315,64 310.993646,64 L307.093646,64 C306.850978,64 306.729646,63.8786679 306.729646,63.636 L306.729646,48.764 C306.729646,48.5213321 306.850978,48.4 307.093646,48.4 L310.993646,48.4 Z M311.227646,51.806 C311.227646,51.6326658 311.16698,51.4853339 311.045646,51.364 C310.924312,51.2426661 310.77698,51.182 310.603646,51.182 L309.771646,51.182 L309.771646,61.218 L310.603646,61.218 C310.77698,61.218 310.924312,61.1573339 311.045646,61.036 C311.16698,60.9146661 311.227646,60.7673342 311.227646,60.594 L311.227646,51.806 Z M315.332587,62.518 C315.332587,62.0673311 315.497252,61.677335 315.826587,61.348 C316.155922,61.018665 316.545919,60.854 316.996587,60.854 C317.447256,60.854 317.837252,61.018665 318.166587,61.348 C318.495922,61.677335 318.660587,62.0673311 318.660587,62.518 C318.660587,62.9686689 318.495922,63.358665 318.166587,63.688 C317.837252,64.017335 317.447256,64.182 316.996587,64.182 C316.545919,64.182 316.155922,64.017335 315.826587,63.688 C315.497252,63.358665 315.332587,62.9686689 315.332587,62.518 Z" id="Teken-je-cirkel-niet"></path>
                </g>
                <g id="Exclamation-Mark" transform="translate(43.000000, 26.000000)">
                    <g id="Group">
                        <g id="Triangle">
                            <use fill="black" fill-opacity="1" filter="url(#filter-5)" xlink:href="#path-4"></use>
                            <use stroke-opacity="0.9" stroke="#16FFFF" stroke-width="2" stroke-linecap="round" stroke-linejoin="round" xlink:href="#path-4"></use>
                            <use stroke="url(#linearGradient-1)" stroke-width="1" stroke-linecap="round" stroke-linejoin="round" xlink:href="#path-4"></use>
                        </g>
                        <g id="Oval">
                            <use fill="black" fill-opacity="1" filter="url(#filter-7)" xlink:href="#path-6"></use>
                            <use stroke-opacity="0.9" stroke="#16FFFF" stroke-width="2" stroke-linecap="round" stroke-linejoin="round" xlink:href="#path-6"></use>
                            <use stroke="url(#linearGradient-1)" stroke-width="1" stroke-linecap="round" stroke-linejoin="round" xlink:href="#path-6"></use>
                        </g>
                    </g>
                </g>
            </g>
        </g>
    </g>
</svg>