<?xml version="1.0" encoding="UTF-8"?>
<svg width="642px" height="199px" viewBox="0 0 642 199" version="1.1" xmlns="http://www.w3.org/2000/svg" xmlns:xlink="http://www.w3.org/1999/xlink">
    <!-- Generator: Sketch 41.2 (35397) - http://www.bohemiancoding.com/sketch -->
    <title>Assets/Textures/alert_scale</title>
    <desc>Created with Sketch.</desc>
    <defs>
        <linearGradient x1="50%" y1="0%" x2="50%" y2="100%" id="linearGradient-1">
            <stop stop-color="#FFFFFF" offset="0%"></stop>
            <stop stop-color="#FFFFFF" stop-opacity="0" offset="100%"></stop>
        </linearGradient>
        <path d="M547.954584,81.7803822 C547.984738,81.1935699 548,80.6028253 548,80.0085183 L548,33.9914817 C548,15.2267396 532.779785,0 514.004698,0 L33.9953016,0 C15.228607,0 0,15.2185047 0,33.9914817 L0,80.0085183 C0,98.7732604 15.2202149,114 33.9953016,114 L514.004698,114 C522.125866,114 529.584466,111.150076 535.433115,106.395464 C542.358916,113.979509 560,114 560,114 C548.055994,107.099972 547.954584,97.7232338 547.954584,97.7232338 L547.954584,81.7803822 Z" id="path-2"></path>
        <filter x="-50%" y="-50%" width="200%" height="200%" filterUnits="objectBoundingBox" id="filter-3">
            <feMorphology radius="3" operator="dilate" in="SourceAlpha" result="shadowSpreadOuter1"></feMorphology>
            <feOffset dx="0" dy="0" in="shadowSpreadOuter1" result="shadowOffsetOuter1"></feOffset>
            <feMorphology radius="3" operator="erode" in="SourceAlpha" result="shadowInner"></feMorphology>
            <feOffset dx="0" dy="0" in="shadowInner" result="shadowInner"></feOffset>
            <feComposite in="shadowOffsetOuter1" in2="shadowInner" operator="out" result="shadowOffsetOuter1"></feComposite>
            <feGaussianBlur stdDeviation="2" in="shadowOffsetOuter1" result="shadowBlurOuter1"></feGaussianBlur>
            <feColorMatrix values="0 0 0 0 0.0862745098   0 0 0 0 1   0 0 0 0 1  0 0 0 0.6 0" type="matrix" in="shadowBlurOuter1"></feColorMatrix>
        </filter>
        <path d="M6.58823529,52.3783784 C6.58823529,52.3783784 8.43334704,37.3705346 6.58823529,22.7013619 C5.13922939,11.1813454 0,0 0,0 L13.1764706,0 C13.1764706,0 16.6237424,10.0915155 15.3636906,20.109292 C13.3296247,36.2807047 6.58823529,52.3783784 6.58823529,52.3783784 Z" id="path-4"></path>
        <filter x="-50%" y="-50%" width="200%" height="200%" filterUnits="objectBoundingBox" id="filter-5">
            <feMorphology radius="3" operator="dilate" in="SourceAlpha" result="shadowSpreadOuter1"></feMorphology>
            <feOffset dx="0" dy="0" in="shadowSpreadOuter1" result="shadowOffsetOuter1"></feOffset>
            <feMorphology radius="3" operator="erode" in="SourceAlpha" result="shadowInner"></feMorphology>
            <feOffset dx="0" dy="0" in="shadowInner" result="shadowInner"></feOffset>
            <feComposite in="shadowOffsetOuter1" in2="shadowInner" operator="out" result="shadowOffsetOuter1"></feComposite>
            <feGaussianBlur stdDeviation="2" in="shadowOffsetOuter1" result="shadowBlurOuter1"></feGaussianBlur>
            <feColorMatrix values="0 0 0 0 0.0862745098   0 0 0 0 1   0 0 0 0 1  0 0 0 0.6 0" type="matrix" in="shadowBlurOuter1"></feColorMatrix>
        </filter>
        <ellipse id="path-6" cx="4.70588235" cy="63.4054054" rx="4.70588235" ry="4.59459459"></ellipse>
        <filter x="-50%" y="-50%" width="200%" height="200%" filterUnits="objectBoundingBox" id="filter-7">
            <feMorphology radius="3" operator="dilate" in="SourceAlpha" result="shadowSpreadOuter1"></feMorphology>
            <feOffset dx="0" dy="0" in="shadowSpreadOuter1" result="shadowOffsetOuter1"></feOffset>
            <feMorphology radius="3" operator="erode" in="SourceAlpha" result="shadowInner"></feMorphology>
            <feOffset dx="0" dy="0" in="shadowInner" result="shadowInner"></feOffset>
            <feComposite in="shadowOffsetOuter1" in2="shadowInner" operator="out" result="shadowOffsetOuter1"></feComposite>
            <feGaussianBlur stdDeviation="2" in="shadowOffsetOuter1" result="shadowBlurOuter1"></feGaussianBlur>
            <feColorMatrix values="0 0 0 0 0.0862745098   0 0 0 0 1   0 0 0 0 1  0 0 0 0.6 0" type="matrix" in="shadowBlurOuter1"></feColorMatrix>
        </filter>
    </defs>
    <g id="Textures" stroke="none" stroke-width="1" fill="none" fill-rule="evenodd">
        <g id="Assets/Textures/alert_scale">
            <g id="Group" transform="translate(41.000000, 43.000000)">
                <g id="Bubble" transform="translate(280.000000, 57.000000) scale(-1, 1) translate(-280.000000, -57.000000) ">
                    <use fill="black" fill-opacity="1" filter="url(#filter-3)" xlink:href="#path-2"></use>
                    <use stroke-opacity="0.9" stroke="#16FFFF" stroke-width="2" stroke-linecap="round" stroke-linejoin="round" xlink:href="#path-2"></use>
                    <use stroke="url(#linearGradient-1)" stroke-width="1" stroke-linecap="round" stroke-linejoin="round" xlink:href="#path-2"></use>
                </g>
                <g id="Group-2" transform="translate(92.000000, 28.000000)" fill="#16FFFF">
                    <path d="M12.35,22.478 C12.35,23.13667 12.2233346,23.7573304 11.97,24.34 C11.7166654,24.9226696 11.3746688,25.4293312 10.944,25.86 C10.5133312,26.2906688 10.0066696,26.6326654 9.424,26.886 C8.84133042,27.1393346 8.22066996,27.266 7.562,27.266 L6.118,27.266 C5.45933004,27.266 4.83866958,27.1393346 4.256,26.886 C3.67333042,26.6326654 3.16666882,26.2906688 2.736,25.86 C2.30533118,25.4293312 1.9633346,24.9226696 1.71,24.34 C1.4566654,23.7573304 1.33,23.13667 1.33,22.478 L1.33,4.922 C1.33,4.26333004 1.4566654,3.64266958 1.71,3.06 C1.9633346,2.47733042 2.30533118,1.97066882 2.736,1.54 C3.16666882,1.10933118 3.67333042,0.7673346 4.256,0.514 C4.83866958,0.2606654 5.45933004,0.134 6.118,0.134 L7.562,0.134 C8.22066996,0.134 8.84133042,0.2606654 9.424,0.514 C10.0066696,0.7673346 10.5133312,1.10933118 10.944,1.54 C11.3746688,1.97066882 11.7166654,2.47733042 11.97,3.06 C12.2233346,3.64266958 12.35,4.26333004 12.35,4.922 L12.35,22.478 Z M7.904,5.112 C7.904,4.8586654 7.81533422,4.64333422 7.638,4.466 C7.46066578,4.28866578 7.2453346,4.2 6.992,4.2 L6.688,4.2 C6.4346654,4.2 6.21933422,4.28866578 6.042,4.466 C5.86466578,4.64333422 5.776,4.8586654 5.776,5.112 L5.776,22.288 C5.776,22.5413346 5.86466578,22.7566658 6.042,22.934 C6.21933422,23.1113342 6.4346654,23.2 6.688,23.2 L6.992,23.2 C7.2453346,23.2 7.46066578,23.1113342 7.638,22.934 C7.81533422,22.7566658 7.904,22.5413346 7.904,22.288 L7.904,5.112 Z M21.0855293,0.4 C21.7441993,0.4 22.3648598,0.5266654 22.9475293,0.78 C23.5301989,1.0333346 24.0368605,1.37533118 24.4675293,1.806 C24.8981982,2.23666882 25.2401947,2.74333042 25.4935293,3.326 C25.7468639,3.90866958 25.8735293,4.52933004 25.8735293,5.188 L25.8735293,11.382 C25.8735293,12.04067 25.7468639,12.6613304 25.4935293,13.244 C25.2401947,13.8266696 24.8981982,14.3333312 24.4675293,14.764 C24.0368605,15.1946688 23.5301989,15.5366654 22.9475293,15.79 C22.3648598,16.0433346 21.7441993,16.17 21.0855293,16.17 L19.2995293,16.17 L19.2995293,26.468 C19.2995293,26.8226684 19.1221978,27 18.7675293,27 L15.3855293,27 C15.0308609,27 14.8535293,26.8226684 14.8535293,26.468 L14.8535293,0.932 C14.8535293,0.57733156 15.0308609,0.4 15.3855293,0.4 L21.0855293,0.4 Z M21.4275293,5.378 C21.4275293,5.1246654 21.3388636,4.90933422 21.1615293,4.732 C20.9841951,4.55466578 20.7688639,4.466 20.5155293,4.466 L19.2995293,4.466 L19.2995293,12.104 L20.5155293,12.104 C20.7688639,12.104 20.9841951,12.0153342 21.1615293,11.838 C21.3388636,11.6606658 21.4275293,11.4453346 21.4275293,11.192 L21.4275293,5.378 Z M33.6590587,0.134 C34.3177287,0.134 34.9383891,0.2606654 35.5210587,0.514 C36.1037283,0.7673346 36.6103899,1.10933118 37.0410587,1.54 C37.4717275,1.97066882 37.8137241,2.47733042 38.0670587,3.06 C38.3203933,3.64266958 38.4470587,4.26333004 38.4470587,4.922 L38.4470587,6.138 C38.4470587,6.49266844 38.2823937,6.72066616 37.9530587,6.822 L34.4950587,8.076 C34.1657237,8.17733384 34.0010587,8.05066844 34.0010587,7.696 L34.0010587,5.112 C34.0010587,4.8586654 33.9123929,4.64333422 33.7350587,4.466 C33.5577245,4.28866578 33.3423933,4.2 33.0890587,4.2 L32.7850587,4.2 C32.5317241,4.2 32.3163929,4.28866578 32.1390587,4.466 C31.9617245,4.64333422 31.8730587,4.8586654 31.8730587,5.112 L31.8730587,22.288 C31.8730587,22.5413346 31.9617245,22.7566658 32.1390587,22.934 C32.3163929,23.1113342 32.5317241,23.2 32.7850587,23.2 L33.0890587,23.2 C33.3423933,23.2 33.5577245,23.1113342 33.7350587,22.934 C33.9123929,22.7566658 34.0010587,22.5413346 34.0010587,22.288 L34.0010587,15.524 L32.9370587,15.524 L32.9370587,11.192 L37.9150587,11.192 C38.2697271,11.192 38.4470587,11.3693316 38.4470587,11.724 L38.4470587,22.478 C38.4470587,23.13667 38.3203933,23.7573304 38.0670587,24.34 C37.8137241,24.9226696 37.4717275,25.4293312 37.0410587,25.86 C36.6103899,26.2906688 36.1037283,26.6326654 35.5210587,26.886 C34.9383891,27.1393346 34.3177287,27.266 33.6590587,27.266 L32.2150587,27.266 C31.5563887,27.266 30.9357283,27.1393346 30.3530587,26.886 C29.7703891,26.6326654 29.2637275,26.2906688 28.8330587,25.86 C28.4023899,25.4293312 28.0603933,24.9226696 27.8070587,24.34 C27.5537241,23.7573304 27.4270587,23.13667 27.4270587,22.478 L27.4270587,4.922 C27.4270587,4.26333004 27.5537241,3.64266958 27.8070587,3.06 C28.0603933,2.47733042 28.4023899,1.97066882 28.8330587,1.54 C29.2637275,1.10933118 29.7703891,0.7673346 30.3530587,0.514 C30.9357283,0.2606654 31.5563887,0.134 32.2150587,0.134 L33.6590587,0.134 Z M49.728588,22.554 C50.0832565,22.554 50.260588,22.7313316 50.260588,23.086 L50.260588,26.468 C50.260588,26.8226684 50.0832565,27 49.728588,27 L41.482588,27 C41.1279196,27 40.950588,26.8226684 40.950588,26.468 L40.950588,0.932 C40.950588,0.57733156 41.1279196,0.4 41.482588,0.4 L49.728588,0.4 C50.0832565,0.4 50.260588,0.57733156 50.260588,0.932 L50.260588,4.314 C50.260588,4.66866844 50.0832565,4.846 49.728588,4.846 L45.396588,4.846 L45.396588,10.318 L49.158588,10.318 C49.5132565,10.318 49.690588,10.4953316 49.690588,10.85 L49.690588,14.232 C49.690588,14.5866684 49.5132565,14.764 49.158588,14.764 L45.396588,14.764 L45.396588,22.554 L49.728588,22.554 Z M59.1861174,0.4 C59.8447874,0.4 60.4654478,0.5266654 61.0481174,0.78 C61.630787,1.0333346 62.1374486,1.37533118 62.5681174,1.806 C62.9987862,2.23666882 63.3407828,2.74333042 63.5941174,3.326 C63.847452,3.90866958 63.9741174,4.52933004 63.9741174,5.188 L63.9741174,11.382 C63.9741174,12.04067 63.847452,12.6613304 63.5941174,13.244 C63.3407828,13.8266696 62.9987862,14.3333312 62.5681174,14.764 C62.1374486,15.1946688 61.630787,15.5366654 61.0481174,15.79 C60.4654478,16.0433346 59.8447874,16.17 59.1861174,16.17 L57.4001174,16.17 L57.4001174,26.468 C57.4001174,26.8226684 57.2227858,27 56.8681174,27 L53.4861174,27 C53.131449,27 52.9541174,26.8226684 52.9541174,26.468 L52.9541174,0.932 C52.9541174,0.57733156 53.131449,0.4 53.4861174,0.4 L59.1861174,0.4 Z M59.5281174,5.378 C59.5281174,5.1246654 59.4394516,4.90933422 59.2621174,4.732 C59.0847832,4.55466578 58.869452,4.466 58.6161174,4.466 L57.4001174,4.466 L57.4001174,12.104 L58.6161174,12.104 C58.869452,12.104 59.0847832,12.0153342 59.2621174,11.838 C59.4394516,11.6606658 59.5281174,11.4453346 59.5281174,11.192 L59.5281174,5.378 Z M76.3576467,26.468 C76.4083137,26.8226684 76.2563152,27 75.9016467,27 L72.4436467,27 C72.1143118,27 71.9243137,26.8226684 71.8736467,26.468 L71.5696467,22.364 L69.2136467,22.364 L68.9096467,26.468 C68.8589798,26.8226684 68.6689817,27 68.3396467,27 L64.8816467,27 C64.5269783,27 64.3749798,26.8226684 64.4256467,26.468 L67.2756467,0.932 C67.3263137,0.57733156 67.5289783,0.4 67.8836467,0.4 L72.8996467,0.4 C73.2543152,0.4 73.4569798,0.57733156 73.5076467,0.932 L76.3576467,26.468 Z M71.2656467,18.108 L70.5436467,7.81 L70.2396467,7.81 L69.5176467,18.108 L71.2656467,18.108 Z M83.9911761,0.134 C84.6498461,0.134 85.2705065,0.2606654 85.8531761,0.514 C86.4358457,0.7673346 86.9425073,1.10933118 87.3731761,1.54 C87.8038449,1.97066882 88.1458415,2.47733042 88.3991761,3.06 C88.6525107,3.64266958 88.7791761,4.26333004 88.7791761,4.922 L88.7791761,6.366 C88.7791761,6.72066844 88.6145111,6.94866616 88.2851761,7.05 L84.8271761,7.962 C84.4978411,8.06333384 84.3331761,7.93666844 84.3331761,7.582 L84.3331761,5.112 C84.3331761,4.8586654 84.2445103,4.64333422 84.0671761,4.466 C83.8898419,4.28866578 83.6745107,4.2 83.4211761,4.2 L83.1171761,4.2 C82.8638415,4.2 82.6485103,4.28866578 82.4711761,4.466 C82.2938419,4.64333422 82.2051761,4.8586654 82.2051761,5.112 L82.2051761,8.57 C82.2305096,8.84866806 82.2811757,9.08933232 82.3571761,9.292 C82.4331765,9.49466768 82.5725084,9.69733232 82.7751761,9.9 L87.7531761,13.624 C88.1585115,13.9786684 88.4181755,14.3396648 88.5321761,14.707 C88.6461767,15.0743352 88.7285092,15.4859977 88.7791761,15.942 L88.7791761,22.478 C88.7791761,23.13667 88.6525107,23.7573304 88.3991761,24.34 C88.1458415,24.9226696 87.8038449,25.4293312 87.3731761,25.86 C86.9425073,26.2906688 86.4358457,26.6326654 85.8531761,26.886 C85.2705065,27.1393346 84.6498461,27.266 83.9911761,27.266 L82.5471761,27.266 C81.8885061,27.266 81.2678457,27.1393346 80.6851761,26.886 C80.1025065,26.6326654 79.5958449,26.2906688 79.1651761,25.86 C78.7345073,25.4293312 78.3925107,24.9226696 78.1391761,24.34 C77.8858415,23.7573304 77.7591761,23.13667 77.7591761,22.478 L77.7591761,18.83 C77.7591761,18.4753316 77.9238411,18.2473338 78.2531761,18.146 L81.7111761,17.234 C82.0405111,17.1326662 82.2051761,17.2593316 82.2051761,17.614 L82.2051761,22.288 C82.2051761,22.5413346 82.2938419,22.7566658 82.4711761,22.934 C82.6485103,23.1113342 82.8638415,23.2 83.1171761,23.2 L83.4211761,23.2 C83.6745107,23.2 83.8898419,23.1113342 84.0671761,22.934 C84.2445103,22.7566658 84.3331761,22.5413346 84.3331761,22.288 L84.3331761,17.272 C84.3078426,16.942665 84.2571765,16.6513346 84.1811761,16.398 C84.1051757,16.1446654 83.9531772,15.9166677 83.7251761,15.714 L78.8231761,11.952 C78.4431742,11.5973316 78.1708436,11.2426684 78.0061761,10.888 C77.8415086,10.5333316 77.7591761,10.0646696 77.7591761,9.482 L77.7591761,4.922 C77.7591761,4.26333004 77.8858415,3.64266958 78.1391761,3.06 C78.3925107,2.47733042 78.7345073,1.97066882 79.1651761,1.54 C79.5958449,1.10933118 80.1025065,0.7673346 80.6851761,0.514 C81.2678457,0.2606654 81.8885061,0.134 82.5471761,0.134 L83.9911761,0.134 Z M100.098705,0.4 C100.453374,0.4 100.630705,0.57733156 100.630705,0.932 L100.630705,4.314 C100.630705,4.66866844 100.453374,4.846 100.098705,4.846 L97.4007054,4.846 L97.4007054,26.468 C97.4007054,26.8226684 97.2233739,27 96.8687054,27 L93.4867054,27 C93.3600381,27 93.239706,26.9493338 93.1257054,26.848 C93.0117049,26.7466662 92.9547054,26.6200008 92.9547054,26.468 L92.9547054,4.846 L90.2947054,4.846 C89.940037,4.846 89.7627054,4.66866844 89.7627054,4.314 L89.7627054,0.932 C89.7627054,0.57733156 89.940037,0.4 90.2947054,0.4 L100.098705,0.4 Z" id="Opgepast"></path>
                    <path d="M7.826,46.8 C8.06866788,46.8 8.19,46.9213321 8.19,47.164 L8.19,61.906 C8.19,62.3566689 8.1033342,62.7813313 7.93,63.18 C7.7566658,63.5786687 7.52266814,63.9253319 7.228,64.22 C6.93333186,64.5146681 6.58666866,64.7486658 6.188,64.922 C5.78933134,65.0953342 5.36466892,65.182 4.914,65.182 L3.926,65.182 C3.47533108,65.182 3.05066866,65.0953342 2.652,64.922 C2.25333134,64.7486658 1.90666814,64.5146681 1.612,64.22 C1.31733186,63.9253319 1.0833342,63.5786687 0.91,63.18 C0.7366658,62.7813313 0.65,62.3566689 0.65,61.906 L0.65,58.604 C0.65,58.3613321 0.76266554,58.2053337 0.988,58.136 L3.354,57.512 C3.57933446,57.4426663 3.692,57.5293321 3.692,57.772 L3.692,61.776 C3.692,61.9493342 3.75266606,62.0966661 3.874,62.218 C3.99533394,62.3393339 4.1426658,62.4 4.316,62.4 L4.524,62.4 C4.6973342,62.4 4.84466606,62.3393339 4.966,62.218 C5.08733394,62.0966661 5.148,61.9493342 5.148,61.776 L5.148,47.164 C5.148,46.9213321 5.26933212,46.8 5.512,46.8 L7.826,46.8 Z M16.0389412,61.958 C16.281609,61.958 16.4029412,62.0793321 16.4029412,62.322 L16.4029412,64.636 C16.4029412,64.8786679 16.281609,65 16.0389412,65 L10.3969412,65 C10.1542733,65 10.0329412,64.8786679 10.0329412,64.636 L10.0329412,49.764 C10.0329412,49.5213321 10.1542733,49.4 10.3969412,49.4 L16.0389412,49.4 C16.281609,49.4 16.4029412,49.5213321 16.4029412,49.764 L16.4029412,52.078 C16.4029412,52.3206679 16.281609,52.442 16.0389412,52.442 L13.0749412,52.442 L13.0749412,55.406 L15.6489412,55.406 C15.891609,55.406 16.0129412,55.5273321 16.0129412,55.77 L16.0129412,58.084 C16.0129412,58.3266679 15.891609,58.448 15.6489412,58.448 L13.0749412,58.448 L13.0749412,61.958 L16.0389412,61.958 Z M27.8628235,49.4 C28.1054913,49.4 28.2268235,49.5213321 28.2268235,49.764 L28.2268235,52.078 C28.2268235,52.3206679 28.1054913,52.442 27.8628235,52.442 L26.0168235,52.442 L26.0168235,64.636 C26.0168235,64.8786679 25.8954913,65 25.6528235,65 L23.3388235,65 C23.2521564,65 23.1698239,64.9653337 23.0918235,64.896 C23.0138231,64.8266663 22.9748235,64.7400005 22.9748235,64.636 L22.9748235,52.442 L21.1548235,52.442 C20.9121556,52.442 20.7908235,52.3206679 20.7908235,52.078 L20.7908235,49.764 C20.7908235,49.5213321 20.9121556,49.4 21.1548235,49.4 L27.8628235,49.4 Z M35.6857646,61.958 C35.9284325,61.958 36.0497646,62.0793321 36.0497646,62.322 L36.0497646,64.636 C36.0497646,64.8786679 35.9284325,65 35.6857646,65 L30.0437646,65 C29.8010967,65 29.6797646,64.8786679 29.6797646,64.636 L29.6797646,49.764 C29.6797646,49.5213321 29.8010967,49.4 30.0437646,49.4 L35.6857646,49.4 C35.9284325,49.4 36.0497646,49.5213321 36.0497646,49.764 L36.0497646,52.078 C36.0497646,52.3206679 35.9284325,52.442 35.6857646,52.442 L32.7217646,52.442 L32.7217646,55.406 L35.2957646,55.406 C35.5384325,55.406 35.6597646,55.5273321 35.6597646,55.77 L35.6597646,58.084 C35.6597646,58.3266679 35.5384325,58.448 35.2957646,58.448 L32.7217646,58.448 L32.7217646,61.958 L35.6857646,61.958 Z M46.4207058,49.4 C46.5247063,49.4 46.5940389,49.4389996 46.6287058,49.517 C46.6633726,49.5950004 46.6633726,49.6773329 46.6287058,49.764 L43.0927058,56.394 L46.5767058,64.636 C46.6113726,64.7226671 46.602706,64.8049996 46.5507058,64.883 C46.4987055,64.9610004 46.4207063,65 46.3167058,65 L43.7427058,65 C43.6387053,65 43.5433729,64.969667 43.4567058,64.909 C43.3700387,64.848333 43.3093726,64.7746671 43.2747058,64.688 L41.3767058,60.372 L40.9347058,61.204 L40.9347058,64.636 C40.9347058,64.8786679 40.8133737,65 40.5707058,65 L38.2567058,65 C38.0140379,65 37.8927058,64.8786679 37.8927058,64.636 L37.8927058,49.764 C37.8927058,49.5213321 38.0140379,49.4 38.2567058,49.4 L40.5707058,49.4 C40.8133737,49.4 40.9347058,49.5213321 40.9347058,49.764 L40.9347058,54.314 L43.3267058,49.712 C43.4133729,49.503999 43.5780379,49.4 43.8207058,49.4 L46.4207058,49.4 Z M54.0096469,61.958 C54.2523148,61.958 54.3736469,62.0793321 54.3736469,62.322 L54.3736469,64.636 C54.3736469,64.8786679 54.2523148,65 54.0096469,65 L48.3676469,65 C48.1249791,65 48.0036469,64.8786679 48.0036469,64.636 L48.0036469,49.764 C48.0036469,49.5213321 48.1249791,49.4 48.3676469,49.4 L54.0096469,49.4 C54.2523148,49.4 54.3736469,49.5213321 54.3736469,49.764 L54.3736469,52.078 C54.3736469,52.3206679 54.2523148,52.442 54.0096469,52.442 L51.0456469,52.442 L51.0456469,55.406 L53.6196469,55.406 C53.8623148,55.406 53.9836469,55.5273321 53.9836469,55.77 L53.9836469,58.084 C53.9836469,58.3266679 53.8623148,58.448 53.6196469,58.448 L51.0456469,58.448 L51.0456469,61.958 L54.0096469,61.958 Z M64.0425881,49.4 C64.285256,49.4 64.4065881,49.5213321 64.4065881,49.764 L64.4065881,64.636 C64.4065881,64.8786679 64.285256,65 64.0425881,65 L62.3785881,65 C62.2745876,65 62.1749219,64.9653337 62.0795881,64.896 C61.9842543,64.8266663 61.9192549,64.7486671 61.8845881,64.662 L59.1285881,57.876 L59.1285881,64.636 C59.1285881,64.8786679 59.007256,65 58.7645881,65 L56.4505881,65 C56.2079202,65 56.0865881,64.8786679 56.0865881,64.636 L56.0865881,49.764 C56.0865881,49.5213321 56.2079202,49.4 56.4505881,49.4 L58.1665881,49.4 C58.2705886,49.4 58.3702543,49.4346663 58.4655881,49.504 C58.5609219,49.5733337 58.6259213,49.6513329 58.6605881,49.738 L61.3645881,57.304 L61.3645881,49.764 C61.3645881,49.5213321 61.4859202,49.4 61.7285881,49.4 L64.0425881,49.4 Z M72.9315293,49.4 C73.1741971,49.4 73.2955293,49.5213321 73.2955293,49.764 L73.2955293,52.078 C73.2955293,52.3206679 73.1741971,52.442 72.9315293,52.442 L71.0855293,52.442 L71.0855293,64.636 C71.0855293,64.8786679 70.9641971,65 70.7215293,65 L68.4075293,65 C68.3208622,65 68.2385296,64.9653337 68.1605293,64.896 C68.0825289,64.8266663 68.0435293,64.7400005 68.0435293,64.636 L68.0435293,52.442 L66.2235293,52.442 C65.9808614,52.442 65.8595293,52.3206679 65.8595293,52.078 L65.8595293,49.764 C65.8595293,49.5213321 65.9808614,49.4 66.2235293,49.4 L72.9315293,49.4 Z M82.0774116,49.4 C82.5280805,49.4 82.9527429,49.4866658 83.3514116,49.66 C83.7500802,49.8333342 84.0967434,50.0673319 84.3914116,50.362 C84.6860797,50.6566681 84.9200774,51.0033313 85.0934116,51.402 C85.2667458,51.8006687 85.3534116,52.2253311 85.3534116,52.676 L85.3534116,61.724 C85.3534116,62.1746689 85.2667458,62.5993313 85.0934116,62.998 C84.9200774,63.3966687 84.6860797,63.7433319 84.3914116,64.038 C84.0967434,64.3326681 83.7500802,64.5666658 83.3514116,64.74 C82.9527429,64.9133342 82.5280805,65 82.0774116,65 L78.1774116,65 C77.9347437,65 77.8134116,64.8786679 77.8134116,64.636 L77.8134116,49.764 C77.8134116,49.5213321 77.9347437,49.4 78.1774116,49.4 L82.0774116,49.4 Z M82.3114116,52.806 C82.3114116,52.6326658 82.2507455,52.4853339 82.1294116,52.364 C82.0080776,52.2426661 81.8607458,52.182 81.6874116,52.182 L80.8554116,52.182 L80.8554116,62.218 L81.6874116,62.218 C81.8607458,62.218 82.0080776,62.1573339 82.1294116,62.036 C82.2507455,61.9146661 82.3114116,61.7673342 82.3114116,61.594 L82.3114116,52.806 Z M93.0723527,61.958 C93.3150206,61.958 93.4363527,62.0793321 93.4363527,62.322 L93.4363527,64.636 C93.4363527,64.8786679 93.3150206,65 93.0723527,65 L87.4303527,65 C87.1876848,65 87.0663527,64.8786679 87.0663527,64.636 L87.0663527,49.764 C87.0663527,49.5213321 87.1876848,49.4 87.4303527,49.4 L93.0723527,49.4 C93.3150206,49.4 93.4363527,49.5213321 93.4363527,49.764 L93.4363527,52.078 C93.4363527,52.3206679 93.3150206,52.442 93.0723527,52.442 L90.1083527,52.442 L90.1083527,55.406 L92.6823527,55.406 C92.9250206,55.406 93.0463527,55.5273321 93.0463527,55.77 L93.0463527,58.084 C93.0463527,58.3266679 92.9250206,58.448 92.6823527,58.448 L90.1083527,58.448 L90.1083527,61.958 L93.0723527,61.958 Z M102.348235,49.218 C102.798904,49.218 103.223566,49.3046658 103.622235,49.478 C104.020904,49.6513342 104.367567,49.8853319 104.662235,50.18 C104.956903,50.4746681 105.190901,50.8213313 105.364235,51.22 C105.537569,51.6186687 105.624235,52.0433311 105.624235,52.494 L105.624235,54.054 C105.624235,54.2966679 105.511569,54.4526663 105.286235,54.522 L102.920235,54.886 C102.694901,54.9553337 102.582235,54.8686679 102.582235,54.626 L102.582235,52.624 C102.582235,52.4506658 102.521569,52.3033339 102.400235,52.182 C102.278901,52.0606661 102.131569,52 101.958235,52 L101.750235,52 C101.576901,52 101.429569,52.0606661 101.308235,52.182 C101.186901,52.3033339 101.126235,52.4506658 101.126235,52.624 L101.126235,61.776 C101.126235,61.9493342 101.186901,62.0966661 101.308235,62.218 C101.429569,62.3393339 101.576901,62.4 101.750235,62.4 L101.958235,62.4 C102.131569,62.4 102.278901,62.3393339 102.400235,62.218 C102.521569,62.0966661 102.582235,61.9493342 102.582235,61.776 L102.582235,58.656 C102.582235,58.4133321 102.694901,58.3266663 102.920235,58.396 L105.286235,58.708 C105.511569,58.7773337 105.624235,58.9333321 105.624235,59.176 L105.624235,61.906 C105.624235,62.3566689 105.537569,62.7813313 105.364235,63.18 C105.190901,63.5786687 104.956903,63.9253319 104.662235,64.22 C104.367567,64.5146681 104.020904,64.7486658 103.622235,64.922 C103.223566,65.0953342 102.798904,65.182 102.348235,65.182 L101.360235,65.182 C100.909566,65.182 100.484904,65.0953342 100.086235,64.922 C99.6875664,64.7486658 99.3409032,64.5146681 99.046235,64.22 C98.7515669,63.9253319 98.5175692,63.5786687 98.344235,63.18 C98.1709008,62.7813313 98.084235,62.3566689 98.084235,61.906 L98.084235,52.494 C98.084235,52.0433311 98.1709008,51.6186687 98.344235,51.22 C98.5175692,50.8213313 98.7515669,50.4746681 99.046235,50.18 C99.3409032,49.8853319 99.6875664,49.6513342 100.086235,49.478 C100.484904,49.3046658 100.909566,49.218 101.360235,49.218 L102.348235,49.218 Z M110.249176,64.636 C110.249176,64.8786679 110.127844,65 109.885176,65 L107.571176,65 C107.328508,65 107.207176,64.8786679 107.207176,64.636 L107.207176,49.764 C107.207176,49.5213321 107.328508,49.4 107.571176,49.4 L109.885176,49.4 C110.127844,49.4 110.249176,49.5213321 110.249176,49.764 L110.249176,64.636 Z M115.264117,64.636 C115.264117,64.8786679 115.134119,65 114.874117,65 L112.560117,65 C112.334783,65 112.222117,64.8786679 112.222117,64.636 L112.222117,49.764 C112.222117,49.5213321 112.343449,49.4 112.586117,49.4 L116.486117,49.4 C116.936786,49.4 117.361449,49.4866658 117.760117,49.66 C118.158786,49.8333342 118.505449,50.0673319 118.800117,50.362 C119.094785,50.6566681 119.328783,51.0033313 119.502117,51.402 C119.675452,51.8006687 119.762117,52.2253311 119.762117,52.676 L119.762117,55.874 C119.762117,56.5153365 119.571453,57.0916641 119.190117,57.603 C118.808782,58.1143359 118.349453,58.5086653 117.812117,58.786 L120.282117,64.636 C120.334118,64.8786679 120.247452,65 120.022117,65 L117.656117,65 C117.552117,65 117.452451,64.9653337 117.357117,64.896 C117.261784,64.8266663 117.196784,64.7400005 117.162117,64.636 L115.264117,59.826 L115.264117,64.636 Z M115.264117,56.368 L116.096117,56.368 C116.269452,56.368 116.416783,56.3073339 116.538117,56.186 C116.659451,56.0646661 116.720117,55.9173342 116.720117,55.744 L116.720117,52.806 C116.720117,52.6326658 116.659451,52.4853339 116.538117,52.364 C116.416783,52.2426661 116.269452,52.182 116.096117,52.182 L115.264117,52.182 L115.264117,56.368 Z M130.159059,49.4 C130.263059,49.4 130.332392,49.4389996 130.367059,49.517 C130.401725,49.5950004 130.401725,49.6773329 130.367059,49.764 L126.831059,56.394 L130.315059,64.636 C130.349725,64.7226671 130.341059,64.8049996 130.289059,64.883 C130.237058,64.9610004 130.159059,65 130.055059,65 L127.481059,65 C127.377058,65 127.281726,64.969667 127.195059,64.909 C127.108391,64.848333 127.047725,64.7746671 127.013059,64.688 L125.115059,60.372 L124.673059,61.204 L124.673059,64.636 C124.673059,64.8786679 124.551726,65 124.309059,65 L121.995059,65 C121.752391,65 121.631059,64.8786679 121.631059,64.636 L121.631059,49.764 C121.631059,49.5213321 121.752391,49.4 121.995059,49.4 L124.309059,49.4 C124.551726,49.4 124.673059,49.5213321 124.673059,49.764 L124.673059,54.314 L127.065059,49.712 C127.151726,49.503999 127.316391,49.4 127.559059,49.4 L130.159059,49.4 Z M137.748,61.958 C137.990668,61.958 138.112,62.0793321 138.112,62.322 L138.112,64.636 C138.112,64.8786679 137.990668,65 137.748,65 L132.106,65 C131.863332,65 131.742,64.8786679 131.742,64.636 L131.742,49.764 C131.742,49.5213321 131.863332,49.4 132.106,49.4 L137.748,49.4 C137.990668,49.4 138.112,49.5213321 138.112,49.764 L138.112,52.078 C138.112,52.3206679 137.990668,52.442 137.748,52.442 L134.784,52.442 L134.784,55.406 L137.358,55.406 C137.600668,55.406 137.722,55.5273321 137.722,55.77 L137.722,58.084 C137.722,58.3266679 137.600668,58.448 137.358,58.448 L134.784,58.448 L134.784,61.958 L137.748,61.958 Z M146.350941,61.958 C146.593609,61.958 146.714941,62.0793321 146.714941,62.322 L146.714941,64.636 C146.714941,64.8786679 146.593609,65 146.350941,65 L140.448941,65 C140.206273,65 140.084941,64.8786679 140.084941,64.636 L140.084941,49.764 C140.084941,49.5213321 140.206273,49.4 140.448941,49.4 L142.762941,49.4 C143.005609,49.4 143.126941,49.5213321 143.126941,49.764 L143.126941,61.958 L146.350941,61.958 Z M154.274823,64.636 C154.274823,64.8786679 154.153491,65 153.910823,65 L151.596823,65 C151.354155,65 151.232823,64.8786679 151.232823,64.636 L151.232823,49.764 C151.232823,49.5213321 151.354155,49.4 151.596823,49.4 L153.910823,49.4 C154.153491,49.4 154.274823,49.5213321 154.274823,49.764 L154.274823,64.636 Z M162.253764,61.958 C162.496432,61.958 162.617764,62.0793321 162.617764,62.322 L162.617764,64.636 C162.617764,64.8786679 162.496432,65 162.253764,65 L156.611764,65 C156.369096,65 156.247764,64.8786679 156.247764,64.636 L156.247764,49.764 C156.247764,49.5213321 156.369096,49.4 156.611764,49.4 L162.253764,49.4 C162.496432,49.4 162.617764,49.5213321 162.617764,49.764 L162.617764,52.078 C162.617764,52.3206679 162.496432,52.442 162.253764,52.442 L159.289764,52.442 L159.289764,55.406 L161.863764,55.406 C162.106432,55.406 162.227764,55.5273321 162.227764,55.77 L162.227764,58.084 C162.227764,58.3266679 162.106432,58.448 161.863764,58.448 L159.289764,58.448 L159.289764,61.958 L162.253764,61.958 Z M171.012705,49.4 C171.255373,49.4 171.376705,49.5213321 171.376705,49.764 L171.376705,52.078 C171.376705,52.3206679 171.255373,52.442 171.012705,52.442 L169.166705,52.442 L169.166705,64.636 C169.166705,64.8786679 169.045373,65 168.802705,65 L166.488705,65 C166.402038,65 166.319706,64.9653337 166.241705,64.896 C166.163705,64.8266663 166.124705,64.7400005 166.124705,64.636 L166.124705,52.442 L164.304705,52.442 C164.062038,52.442 163.940705,52.3206679 163.940705,52.078 L163.940705,49.764 C163.940705,49.5213321 164.062038,49.4 164.304705,49.4 L171.012705,49.4 Z M176.703647,49.218 C177.154316,49.218 177.578978,49.3046658 177.977647,49.478 C178.376315,49.6513342 178.722978,49.8853319 179.017647,50.18 C179.312315,50.4746681 179.546312,50.8213313 179.719647,51.22 C179.892981,51.6186687 179.979647,52.0433311 179.979647,52.494 L179.979647,53.482 C179.979647,53.7246679 179.866981,53.8806663 179.641647,53.95 L177.275647,54.574 C177.050312,54.6433337 176.937647,54.5566679 176.937647,54.314 L176.937647,52.624 C176.937647,52.4506658 176.876981,52.3033339 176.755647,52.182 C176.634313,52.0606661 176.486981,52 176.313647,52 L176.105647,52 C175.932312,52 175.784981,52.0606661 175.663647,52.182 C175.542313,52.3033339 175.481647,52.4506658 175.481647,52.624 L175.481647,54.21 C175.49898,54.4006676 175.533646,54.5653326 175.585647,54.704 C175.637647,54.8426674 175.732979,54.9813326 175.871647,55.12 L179.277647,57.668 C179.554981,57.9106679 179.732646,58.1576654 179.810647,58.409 C179.888647,58.6603346 179.94498,58.9419984 179.979647,59.254 L179.979647,61.906 C179.979647,62.3566689 179.892981,62.7813313 179.719647,63.18 C179.546312,63.5786687 179.312315,63.9253319 179.017647,64.22 C178.722978,64.5146681 178.376315,64.7486658 177.977647,64.922 C177.578978,65.0953342 177.154316,65.182 176.703647,65.182 L175.715647,65.182 C175.264978,65.182 174.840315,65.0953342 174.441647,64.922 C174.042978,64.7486658 173.696315,64.5146681 173.401647,64.22 C173.106978,63.9253319 172.872981,63.5786687 172.699647,63.18 C172.526312,62.7813313 172.439647,62.3566689 172.439647,61.906 L172.439647,60.45 C172.439647,60.2073321 172.552312,60.0513337 172.777647,59.982 L175.143647,59.358 C175.368981,59.2886663 175.481647,59.3753321 175.481647,59.618 L175.481647,61.776 C175.481647,61.9493342 175.542313,62.0966661 175.663647,62.218 C175.784981,62.3393339 175.932312,62.4 176.105647,62.4 L176.313647,62.4 C176.486981,62.4 176.634313,62.3393339 176.755647,62.218 C176.876981,62.0966661 176.937647,61.9493342 176.937647,61.776 L176.937647,60.164 C176.920313,59.9386655 176.885647,59.7393342 176.833647,59.566 C176.781646,59.3926658 176.677647,59.2366674 176.521647,59.098 L173.167647,56.524 C172.907645,56.2813321 172.721314,56.0386679 172.608647,55.796 C172.495979,55.5533321 172.439647,55.2326687 172.439647,54.834 L172.439647,52.494 C172.439647,52.0433311 172.526312,51.6186687 172.699647,51.22 C172.872981,50.8213313 173.106978,50.4746681 173.401647,50.18 C173.696315,49.8853319 174.042978,49.6513342 174.441647,49.478 C174.840315,49.3046658 175.264978,49.218 175.715647,49.218 L176.703647,49.218 Z M191.179529,49.4 C191.422197,49.4 191.543529,49.5213321 191.543529,49.764 L191.543529,52.078 C191.543529,52.3206679 191.422197,52.442 191.179529,52.442 L189.333529,52.442 L189.333529,64.636 C189.333529,64.8786679 189.212197,65 188.969529,65 L186.655529,65 C186.568862,65 186.486529,64.9653337 186.408529,64.896 C186.330529,64.8266663 186.291529,64.7400005 186.291529,64.636 L186.291529,52.442 L184.471529,52.442 C184.228861,52.442 184.107529,52.3206679 184.107529,52.078 L184.107529,49.764 C184.107529,49.5213321 184.228861,49.4 184.471529,49.4 L191.179529,49.4 Z M199.00247,61.958 C199.245138,61.958 199.36647,62.0793321 199.36647,62.322 L199.36647,64.636 C199.36647,64.8786679 199.245138,65 199.00247,65 L193.36047,65 C193.117802,65 192.99647,64.8786679 192.99647,64.636 L192.99647,49.764 C192.99647,49.5213321 193.117802,49.4 193.36047,49.4 L199.00247,49.4 C199.245138,49.4 199.36647,49.5213321 199.36647,49.764 L199.36647,52.078 C199.36647,52.3206679 199.245138,52.442 199.00247,52.442 L196.03847,52.442 L196.03847,55.406 L198.61247,55.406 C198.855138,55.406 198.97647,55.5273321 198.97647,55.77 L198.97647,58.084 C198.97647,58.3266679 198.855138,58.448 198.61247,58.448 L196.03847,58.448 L196.03847,61.958 L199.00247,61.958 Z M212.802352,49.4 C212.906353,49.4 212.975686,49.4389996 213.010352,49.517 C213.045019,49.5950004 213.045019,49.6773329 213.010352,49.764 L209.474352,56.394 L212.958352,64.636 C212.993019,64.7226671 212.984353,64.8049996 212.932352,64.883 C212.880352,64.9610004 212.802353,65 212.698352,65 L210.124352,65 C210.020352,65 209.925019,64.969667 209.838352,64.909 C209.751685,64.848333 209.691019,64.7746671 209.656352,64.688 L207.758352,60.372 L207.316352,61.204 L207.316352,64.636 C207.316352,64.8786679 207.19502,65 206.952352,65 L204.638352,65 C204.395685,65 204.274352,64.8786679 204.274352,64.636 L204.274352,49.764 C204.274352,49.5213321 204.395685,49.4 204.638352,49.4 L206.952352,49.4 C207.19502,49.4 207.316352,49.5213321 207.316352,49.764 L207.316352,54.314 L209.708352,49.712 C209.795019,49.503999 209.959685,49.4 210.202352,49.4 L212.802352,49.4 Z M220.781294,61.958 C221.023961,61.958 221.145294,62.0793321 221.145294,62.322 L221.145294,64.636 C221.145294,64.8786679 221.023961,65 220.781294,65 L214.879294,65 C214.636626,65 214.515294,64.8786679 214.515294,64.636 L214.515294,49.764 C214.515294,49.5213321 214.636626,49.4 214.879294,49.4 L217.193294,49.4 C217.435961,49.4 217.557294,49.5213321 217.557294,49.764 L217.557294,61.958 L220.781294,61.958 Z M228.604235,61.958 C228.846903,61.958 228.968235,62.0793321 228.968235,62.322 L228.968235,64.636 C228.968235,64.8786679 228.846903,65 228.604235,65 L222.962235,65 C222.719567,65 222.598235,64.8786679 222.598235,64.636 L222.598235,49.764 C222.598235,49.5213321 222.719567,49.4 222.962235,49.4 L228.604235,49.4 C228.846903,49.4 228.968235,49.5213321 228.968235,49.764 L228.968235,52.078 C228.968235,52.3206679 228.846903,52.442 228.604235,52.442 L225.640235,52.442 L225.640235,55.406 L228.214235,55.406 C228.456903,55.406 228.578235,55.5273321 228.578235,55.77 L228.578235,58.084 C228.578235,58.3266679 228.456903,58.448 228.214235,58.448 L225.640235,58.448 L225.640235,61.958 L228.604235,61.958 Z M233.853176,64.636 C233.853176,64.8786679 233.731844,65 233.489176,65 L231.175176,65 C230.932508,65 230.811176,64.8786679 230.811176,64.636 L230.811176,49.764 C230.811176,49.5213321 230.932508,49.4 231.175176,49.4 L233.489176,49.4 C233.731844,49.4 233.853176,49.5213321 233.853176,49.764 L233.853176,64.636 Z M243.782117,49.4 C244.024785,49.4 244.146117,49.5213321 244.146117,49.764 L244.146117,64.636 C244.146117,64.8786679 244.024785,65 243.782117,65 L242.118117,65 C242.014116,65 241.914451,64.9653337 241.819117,64.896 C241.723783,64.8266663 241.658784,64.7486671 241.624117,64.662 L238.868117,57.876 L238.868117,64.636 C238.868117,64.8786679 238.746785,65 238.504117,65 L236.190117,65 C235.947449,65 235.826117,64.8786679 235.826117,64.636 L235.826117,49.764 C235.826117,49.5213321 235.947449,49.4 236.190117,49.4 L237.906117,49.4 C238.010118,49.4 238.109783,49.4346663 238.205117,49.504 C238.300451,49.5733337 238.36545,49.6513329 238.400117,49.738 L241.104117,57.304 L241.104117,49.764 C241.104117,49.5213321 241.225449,49.4 241.468117,49.4 L243.782117,49.4 Z M245.469058,63.518 C245.469058,63.0673311 245.633723,62.677335 245.963058,62.348 C246.292393,62.018665 246.682389,61.854 247.133058,61.854 C247.583727,61.854 247.973723,62.018665 248.303058,62.348 C248.632393,62.677335 248.797058,63.0673311 248.797058,63.518 C248.797058,63.9686689 248.632393,64.358665 248.303058,64.688 C247.973723,65.017335 247.583727,65.182 247.133058,65.182 C246.682389,65.182 246.292393,65.017335 245.963058,64.688 C245.633723,64.358665 245.469058,63.9686689 245.469058,63.518 Z" id="Je-tekent-de-cirkel"></path>
                </g>
                <g id="Exclamation-Mark" transform="translate(43.000000, 26.000000)">
                    <g id="Group">
                        <g id="Triangle">
                            <use fill="black" fill-opacity="1" filter="url(#filter-5)" xlink:href="#path-4"></use>
                            <use stroke-opacity="0.9" stroke="#16FFFF" stroke-width="2" stroke-linecap="round" stroke-linejoin="round" xlink:href="#path-4"></use>
                            <use stroke="url(#linearGradient-1)" stroke-width="1" stroke-linecap="round" stroke-linejoin="round" xlink:href="#path-4"></use>
                        </g>
                        <g id="Oval">
                            <use fill="black" fill-opacity="1" filter="url(#filter-7)" xlink:href="#path-6"></use>
                            <use stroke-opacity="0.9" stroke="#16FFFF" stroke-width="2" stroke-linecap="round" stroke-linejoin="round" xlink:href="#path-6"></use>
                            <use stroke="url(#linearGradient-1)" stroke-width="1" stroke-linecap="round" stroke-linejoin="round" xlink:href="#path-6"></use>
                        </g>
                    </g>
                </g>
            </g>
        </g>
    </g>
</svg>